<svg width="714" height="679" viewBox="0 0 714 679" fill="none" xmlns="http://www.w3.org/2000/svg">
<g clip-path="url(#clip0_24_260)">
<path d="M509.391 315.064C512.16 312.936 512.365 309.26 512.983 306.118C514.066 309.253 514.326 312.974 516.965 315.308C519.588 317.406 523.066 317.695 526.193 318.603C522.769 319 518.902 319.419 516.431 322.111C514.135 324.285 514.341 327.702 512.96 330.379C512.335 327.397 511.992 324.049 509.681 321.814C507.256 319.358 503.64 319.038 500.414 318.542C503.495 317.695 507.065 317.566 509.391 315.064Z" fill="white"/>
<path d="M343.644 438.322C345.543 436.682 345.718 434.036 345.924 431.71C346.473 433.906 346.611 436.461 348.312 438.147C349.989 439.718 352.43 439.832 354.55 440.435C352.384 440.557 349.989 440.786 348.342 442.357C346.664 444.004 346.496 446.506 345.879 448.649C345.68 446.498 345.566 444.088 343.926 442.486C341.958 440.595 339.022 440.29 336.429 440.58C338.854 439.962 341.623 439.969 343.644 438.322Z" fill="white"/>
<path d="M603.819 556.279C611.187 548.957 617.822 540.82 622.902 531.736C622.932 532.064 623.008 532.705 623.047 533.025C615.725 543.992 609.86 555.883 605.436 568.299C604.49 564.013 603.537 559.727 602.21 555.539C602.736 555.784 603.27 556.02 603.819 556.279Z" fill="white"/>
<path d="M19.5324 129.869C19.0901 121.426 26.6101 113.745 35.0607 114.043C140.578 114.012 246.096 114.05 351.622 114.028C357.281 113.753 362.993 116.743 365.762 121.723C368.744 126.81 367.745 132.957 367.638 138.563C358.036 131.996 346.321 128.976 334.766 128.892C319.154 128.671 303.771 132.744 289.409 138.617C286.526 138.121 283.605 137.991 280.699 138.075C201.121 138.083 121.549 138.067 41.9707 138.075C40.7351 138.098 39.4996 138.159 38.2564 138.228C38.1267 178.124 38.2945 218.035 38.1954 257.939C38.1801 259.884 38.2335 261.829 38.3098 263.781C101.109 263.873 163.909 263.667 226.701 263.888C226.053 274.192 228.165 284.709 225.443 294.822C224.596 298.133 223.475 301.359 222.209 304.531C180.925 304.295 139.64 304.516 98.3561 304.425C78.3203 304.493 58.2769 304.341 38.2487 304.509C38.1496 344.664 38.2716 384.827 38.1877 424.983C38.1954 426.676 38.2564 428.384 38.3174 430.085C54.7838 430.306 71.2502 430.054 87.7166 430.207C89.8445 430.238 91.9724 430.123 94.0851 429.887C99.0654 432.335 103.954 434.943 108.965 437.331C105.426 442.311 102.406 447.65 99.8128 453.179C99.4162 454.277 98.3561 455.589 99.5001 456.611C103.481 461.294 107.669 465.809 111.612 470.538C87.1751 471.217 62.7005 470.5 38.2564 470.904C38.1877 530.34 38.1649 589.776 38.2716 649.22C77.1153 649.556 115.974 649.258 154.825 649.365C185.089 649.365 215.36 649.38 245.623 649.342C243.122 658.975 240.78 668.653 237.89 678.179H19.7231C19.2731 668.76 19.6468 659.326 19.5248 649.899C19.5324 476.556 19.5248 303.212 19.5324 129.869Z" fill="#B4BFEF"/>
<path d="M159.897 430.505C168.348 429.795 176.844 430.337 185.318 430.184C197.872 430.001 210.448 430.512 222.994 429.917C225.992 431.534 229.142 432.838 232.299 434.112C223.467 446.62 214.391 458.96 205.697 471.568C190.42 457.893 175.06 444.302 159.897 430.505Z" fill="#B4BFEF"/>
<path d="M289.409 138.617C303.771 132.744 319.154 128.671 334.766 128.892C346.321 128.976 358.036 131.996 367.638 138.563C373.274 142.483 378.178 147.532 381.557 153.535C388.65 155.327 395.4 158.713 400.701 163.808C409.22 171.801 414.185 182.814 417.167 193.934C421.979 212.254 422.147 231.405 420.988 250.198C419.6 247.749 418.044 245.141 415.428 243.845C410.654 241.816 404.209 243.387 401.677 248.131C401.585 262.675 401.616 277.235 401.646 291.779C408.411 289.148 414.444 284.572 418.456 278.478C417.197 288.271 415.291 297.995 412.492 307.476C407.999 307.407 403.515 307.453 399.023 307.453C401.006 300.299 401.608 292.84 401.471 285.449C401.334 270.935 401.822 256.398 401.143 241.907C398.862 229.941 394.515 217.906 386.324 208.677C381.061 202.69 373.465 198.892 365.487 198.449C358.791 189.869 348.113 184.302 337.123 184.813C328.329 185.324 319.589 188.435 312.671 193.927C304.64 200.348 301.193 210.63 293.619 217.478C284.452 226.082 271.921 229.59 259.908 232.099C259.886 252.005 259.611 271.911 259.855 291.81L259.611 291.696C259.573 277.166 259.725 262.614 259.565 248.085C256.179 241.778 245.6 241.007 241.932 247.46C234.991 258.656 237.714 274.283 246.844 283.466C246.432 284.61 245.921 285.754 245.822 286.982C245.44 300.672 242.679 314.431 236.791 326.848C233.703 333.72 228.936 339.707 226.083 346.708C219.707 361.192 216.336 377.856 220.722 393.385C223.742 404.833 232.391 414.076 242.534 419.781C239.125 424.556 235.716 429.338 232.299 434.112C229.142 432.838 225.992 431.534 222.994 429.917C214.162 425.143 206.566 417.6 203.035 408.074C196.773 390.555 196.094 371.091 201.304 353.214C205.948 336.053 215.444 320.845 222.209 304.532C223.475 301.359 224.596 298.133 225.443 294.823C228.165 284.709 226.053 274.192 226.701 263.888C226.716 263.484 226.732 262.668 226.739 262.256C227.464 236.973 231.132 211.354 241.36 188.039C242.397 185.827 243.503 183.653 244.601 181.472C249.17 172.732 254.936 164.609 261.823 157.546C269.724 149.576 279.159 143.177 289.409 138.617Z" fill="#352824"/>
<path d="M282.865 230.375C293.604 228.515 304.953 233.228 311.336 242.022C310.482 242.632 309.62 243.234 308.766 243.845C303.046 236.08 293.001 231.809 283.445 233.533C283.254 232.48 283.056 231.42 282.865 230.375Z" fill="#352824"/>
<path d="M349.921 242.022C356.297 233.243 367.615 228.522 378.339 230.375C378.201 231.397 378.064 232.419 377.934 233.449C368.309 231.901 358.257 236.004 352.476 243.837C351.622 243.219 350.775 242.624 349.921 242.022Z" fill="#352824"/>
<path d="M292.445 253.744C296.8 251.494 302.032 254.423 303.748 258.679C306.57 264.475 304.625 273.094 298.165 275.458C293.36 277.189 288.547 273.238 287.258 268.746C285.504 263.392 287.175 256.467 292.445 253.744Z" fill="#352824"/>
<path d="M362.429 253.615C367.318 251.349 372.664 255.308 373.984 260.052C376.058 265.962 373.48 274.36 366.746 275.74C360.926 276.747 356.549 270.874 356.297 265.573C355.893 260.921 357.975 255.628 362.429 253.615Z" fill="#352824"/>
<path d="M356.213 351.048C357.609 350.605 358.989 350.117 360.377 349.644C360.362 354.144 360.393 358.644 360.37 363.152C359.027 362.412 357.67 361.695 356.297 361.039C356.221 357.706 356.228 354.373 356.213 351.048Z" fill="#352824"/>
<path d="M38.2561 138.228C39.4992 138.159 40.7348 138.098 41.9704 138.075C121.549 138.067 201.12 138.083 280.699 138.075C283.605 137.991 286.526 138.121 289.409 138.617C279.158 143.177 269.724 149.576 261.823 157.546C261.334 153.908 261.594 150.232 261.479 146.579C261.548 144.863 260.328 143.002 258.505 142.926C254.691 142.689 250.855 142.75 247.042 142.88C245.013 142.705 243.831 144.817 244.006 146.617C243.945 156.517 244.082 166.424 243.953 176.324C243.892 178.063 244.136 179.794 244.601 181.472C243.503 183.653 242.397 185.827 241.36 188.039C240.589 178.307 241.329 168.529 240.955 158.79C240.994 157.203 239.644 155.663 237.996 155.83C233.939 155.747 229.843 155.541 225.793 155.914C223.726 156.219 223.444 158.614 223.52 160.3C223.589 193.118 223.467 225.952 223.566 258.77C223.345 260.746 225.305 261.524 226.739 262.256C226.731 262.668 226.716 263.484 226.701 263.888C163.909 263.667 101.109 263.873 38.3095 263.781C38.2332 261.829 38.1798 259.884 38.1951 257.939C38.2942 218.035 38.1264 178.124 38.2561 138.228ZM190.183 147.708C187.567 147.731 185.821 150.225 186.05 152.703C186.072 187.528 185.981 222.36 186.088 257.184C185.828 260.059 188.673 262.324 191.426 261.981C199.824 261.897 208.221 262.065 216.618 261.92C219.547 262.134 221.339 258.991 221.087 256.383C221.042 222.07 221.087 187.756 221.049 153.443C221.476 150.431 219.005 147.334 215.871 147.555C207.313 147.647 198.725 147.319 190.183 147.708ZM87.2129 176.339C86.9384 179.535 87.3426 182.761 86.946 185.957C84.513 186.124 81.8894 186.048 79.792 187.482C76.7031 189.16 75.2159 192.828 75.376 196.222C75.4371 216.807 75.3379 237.392 75.4371 257.977C75.1472 260.158 77.0235 262.355 79.2505 262.241C93.7873 262.164 108.324 262.263 122.853 262.241C124.158 262.263 125.469 261.752 126.331 260.753C127.056 259.182 126.827 257.375 126.911 255.697C126.842 236.103 126.911 216.51 126.888 196.916C126.957 193.95 126.651 190.609 124.119 188.641C121.892 186.132 118.399 186.048 115.303 186.071C114.921 182.57 115.402 179.039 114.998 175.546C114.883 174.12 113.205 174.219 112.168 174.204C104.755 174.158 97.3338 174.196 89.9281 174.173C88.6163 173.952 87.274 175.012 87.2129 176.339ZM138.176 202.232C137.947 204.772 137.932 207.342 138.138 209.89C138.793 211.529 141.348 212.879 140.029 214.916C138.321 215.976 136.307 216.685 135.117 218.401C133.607 220.293 133.516 222.81 133.531 225.121C133.592 235.821 133.554 246.522 133.584 257.222C133.287 259.724 135.514 262.141 138.054 261.935C145.665 261.974 153.285 262.027 160.904 261.905C163.474 262.134 165.442 259.602 165.304 257.176C165.343 245.736 165.373 234.288 165.297 222.84C165.373 218.958 162.124 216.09 158.692 214.946C157.678 212.17 161.415 211.072 160.889 208.372C160.622 205.962 161.842 202.4 159.233 200.974C153.712 200.631 148.152 200.989 142.615 200.837C141.097 200.875 139.007 200.623 138.176 202.232ZM50.9929 217.532C50.4362 220.163 54.0818 221.033 53.5632 223.595C53.5098 233.274 53.5251 242.952 53.5022 252.623C53.4488 255.048 53.9369 257.672 55.8055 259.38C58.8181 262.782 64.7747 262.851 67.7797 259.411C69.4957 257.901 70.205 255.613 70.1288 253.378C70.1135 243.196 70.1593 233.007 70.1288 222.825C69.9457 221.284 71.5855 220.644 72.5007 219.751C72.6151 217.524 72.966 215.206 72.3024 213.032C71.3567 211.575 69.3356 212.086 67.8788 211.964C62.7993 212.124 57.697 211.758 52.6327 212.162C50.2684 212.696 51.1378 215.762 50.9929 217.532Z" fill="#9BA9DD"/>
<path d="M516.164 175.447C545.962 175.416 575.76 175.431 605.558 175.447C610.615 175.126 615.199 179.672 615 184.721C615.092 189.717 610.516 194.018 605.566 193.85C575.768 193.896 545.969 193.858 516.179 193.873C516.148 193.248 516.087 192.012 516.057 191.394C545.649 191.333 575.249 191.455 604.849 191.326C609.967 191.265 612.277 184.149 608.884 180.656C607.328 178.795 604.773 178.589 602.53 178.627C573.708 178.719 544.886 178.589 516.065 178.688C516.095 177.605 516.126 176.53 516.164 175.447Z" fill="#9BA9DD"/>
<path d="M544.101 195.078C573.991 195.368 603.903 195.078 633.801 195.223C638.186 195.109 642.152 198.648 642.8 202.942C643.799 208.235 639.269 213.657 633.877 213.581C603.949 213.756 574.006 213.39 544.078 213.764C544.17 213.146 544.337 211.911 544.429 211.293C573.716 210.988 603.026 211.285 632.321 211.14C636.073 211.224 639.033 207.335 638.323 203.727C638.011 200.432 634.708 198.114 631.513 198.442C602.462 198.434 573.403 198.48 544.353 198.419C544.261 197.305 544.177 196.192 544.101 195.078Z" fill="#9BA9DD"/>
<path d="M524.736 220.407C524.385 217.989 525.613 214.939 528.504 215.244C558.775 215.206 589.046 215.236 619.317 215.236C626.006 215.091 632.649 218.729 635.921 224.602C638.628 229.14 638.758 234.677 638.072 239.772C636.668 248.268 628.668 255.086 620.026 254.949C589.534 254.972 559.042 254.972 528.55 254.949C526.147 255.338 524.622 253.05 524.652 250.899C555.701 250.739 586.75 250.884 617.792 250.823C622.261 250.823 626.723 248.787 629.499 245.255C633.679 240.199 634.006 232.412 630.368 226.981C627.493 222.588 622.238 220.018 617.006 220.293C586.247 220.384 555.488 220.178 524.736 220.407Z" fill="#9BA9DD"/>
<path d="M443.426 268.517C443.548 264.643 443.297 260.761 443.609 256.894C516.85 257.047 590.091 256.803 663.332 257.016C663.271 260.768 663.446 264.529 663.225 268.281L662.943 268.662C644.585 268.296 626.212 268.609 607.846 268.502C553.04 268.51 498.233 268.487 443.426 268.517Z" fill="#9BA9DD"/>
<path d="M38.2487 304.509C58.2769 304.341 78.3203 304.493 98.3561 304.425C139.64 304.516 180.925 304.295 222.209 304.531C215.444 320.845 205.948 336.053 201.304 353.214C196.094 371.091 196.773 390.555 203.035 408.074C206.566 417.6 214.162 425.143 222.994 429.917C210.448 430.512 197.872 430.001 185.318 430.184C176.844 430.337 168.348 429.795 159.897 430.504C159.081 429.788 158.25 429.094 157.426 428.399C164.603 427.133 171.963 428.247 179.209 427.827C179.498 425.364 179.529 422.893 179.315 420.429C169.095 420.147 158.852 420.094 148.64 420.506C147.557 419.529 146.474 418.568 145.391 417.607C147.343 416.707 149.54 415.952 150.859 414.145C152.187 412.467 152.438 410.255 152.461 408.196C152.476 397.213 152.362 386.223 152.545 375.24C154.261 375.133 155.977 375.194 157.693 375.377C157.823 386.558 157.678 397.739 157.769 408.913C157.708 412.086 159.302 415.548 162.468 416.646C167.265 418.95 173.534 415.037 173.618 409.729C173.633 399.562 173.702 389.388 173.595 379.229C173.626 377.978 173.557 376.689 173.999 375.507C175.418 375.141 176.898 375.111 178.354 375.019C178.339 373.73 178.324 372.449 178.309 371.167C176.798 371.061 175.296 370.969 173.786 370.878C173.443 361.237 173.717 351.582 173.656 341.934C168.409 341.56 163.139 341.751 157.876 341.85C157.426 351.62 158.151 361.42 157.541 371.19C155.908 371.274 154.276 371.35 152.652 371.434C152.171 361.596 152.698 351.742 152.4 341.896C147.145 341.674 141.875 341.674 136.628 341.88C136.224 349.095 137.162 356.371 136.117 363.533C134.912 361.214 133.165 359.247 131.243 357.508C131.319 352.291 131.411 347.067 131.175 341.857C125.912 341.705 120.642 341.644 115.387 341.918C115.25 351.62 115.616 361.329 115.265 371.023C113.671 371.038 112.077 371.023 110.49 370.992C110.101 361.306 110.399 351.604 110.361 341.911C105.106 341.606 99.8357 341.781 94.5808 341.812C94.23 350.987 94.5121 360.177 94.4283 369.36C94.7791 371.945 91.3546 371.35 89.7682 371.907L89.2572 371.816C88.9598 361.847 89.2649 351.879 89.1276 341.903C83.865 341.644 78.5872 341.72 73.3247 341.857C73.1035 350.918 73.5383 359.994 73.0883 369.047C68.2986 368.605 61.4802 366.98 58.643 372.159L58.4447 373.105C54.9058 372.723 51.0848 371.938 47.7518 373.608C45.5324 374.63 44.2968 377.452 45.2426 379.748C45.9671 380.785 47.0578 381.471 48.0187 382.287C46.2722 383.653 43.9307 385.033 43.9384 387.565C43.9765 390.181 46.0892 391.989 47.7518 393.728C47.7137 394.033 47.6374 394.635 47.5993 394.94C46.9815 399.097 46.8061 404.398 50.7492 407.037C58.3684 411.75 66.491 415.594 74.362 419.857C72.0129 420.193 69.6409 420.368 67.269 420.452C67.1774 422.901 67.1775 425.349 67.2613 427.805C74.8882 427.949 82.5227 427.759 90.1496 427.888C91.4767 428.522 92.7732 429.208 94.085 429.887C91.9724 430.123 89.8445 430.238 87.7166 430.207C71.2502 430.054 54.7838 430.306 38.3174 430.085C38.2564 428.384 38.1953 426.676 38.1877 424.983C38.2716 384.827 38.1496 344.664 38.2487 304.509Z" fill="#9BA9DD"/>
<path d="M110.201 375.4C111.886 375.156 113.602 375.103 115.295 375.301C115.311 376.933 115.311 378.573 115.295 380.221C113.358 379.534 111.451 378.764 109.568 377.955C109.72 377.315 110.04 376.041 110.201 375.4Z" fill="#9BA9DD"/>
<path d="M38.2564 470.904C62.7005 470.5 87.1751 471.217 111.612 470.538C136.147 498.086 160.347 525.955 185.623 552.839C189.444 556.592 192.823 560.97 197.536 563.67C197.376 566.209 197.307 568.749 197.315 571.297C194.371 571.891 191.007 571.83 188.673 573.996C186.164 575.865 185.356 579.137 185.386 582.127C185.394 602.201 185.394 622.275 185.356 642.341C185.219 644.255 185.844 646.063 186.95 647.611C201.662 647.992 216.39 647.603 231.102 647.802C232.917 647.573 235.586 648.259 236.486 646.154C237.272 644.499 237.058 642.593 237.135 640.823C237.02 621.253 237.135 601.69 237.112 582.119C237.203 578.794 235.861 575.209 232.947 573.394C230.591 571.991 227.784 571.808 225.16 571.274C224.924 567.811 225.588 564.257 224.787 560.871C222.972 559.216 219.959 560.321 217.686 559.597C224.688 554.357 230.049 547.363 235.8 540.865C239.041 545.602 244.006 548.584 248.804 551.505C243.061 553.839 236.814 554.22 230.69 554.243C230.591 555.303 230.492 556.371 230.408 557.446C237.455 557.606 244.586 556.638 251.199 554.136C254.303 552.58 257.46 554.685 260.526 555.272C260.984 565.317 260.442 575.4 258.894 585.338C258.261 589.403 257.659 593.475 256.957 597.541C251.801 597.808 246.6 597.22 241.474 597.815C238.927 598.441 239.606 601.491 239.606 603.444C239.415 605.328 241.062 606.403 242.252 607.562C242.489 617.874 242.298 628.201 242.321 638.527C242.145 641.662 243.45 644.942 246.31 646.497C246.073 647.436 245.852 648.389 245.623 649.342C215.36 649.38 185.089 649.365 154.825 649.365C115.974 649.258 77.1153 649.556 38.2716 649.22C38.1648 589.776 38.1877 530.34 38.2564 470.904ZM44.396 528.922C43.0689 529.6 42.3367 531.065 42.5045 532.544C42.5427 569.634 42.4664 606.723 42.5198 643.813C42.3825 645.414 43.2215 647.405 45.0061 647.603C49.0331 647.908 53.1059 647.878 57.1405 647.619C59.3752 647.458 60.2218 645.041 60.0082 643.119C59.9853 606.235 60.0235 569.344 60.0006 532.46C60.2294 530.401 58.5057 528.571 56.4388 528.662C52.4347 528.678 48.3543 528.304 44.396 528.922ZM110.025 530.523C101.964 532.262 93.9554 534.26 85.9014 536.03C84.4752 536.426 82.7363 536.785 82.0499 538.272C80.5321 541.018 81.9888 544.145 82.5532 546.967C89.5394 577.482 96.6172 607.974 103.634 638.489C104.206 640.96 104.58 643.515 105.586 645.88C107.013 647.939 109.865 648.091 112.092 647.451C119.887 645.544 127.735 643.843 135.552 642.013C138.046 641.433 139.823 638.672 139 636.186C131.274 602.208 123.342 568.276 115.585 534.306C115.112 531.858 112.527 529.867 110.025 530.523ZM64.2945 541.918C63.0056 542.62 62.6013 544.076 62.7157 545.464C62.7081 578.527 62.7081 611.597 62.7157 644.667C62.5556 646.246 64.0657 647.626 65.5987 647.664C69.3816 647.893 73.1951 647.817 76.978 647.71C78.9915 647.695 80.5397 645.88 80.2194 643.904C80.2575 611.094 80.2499 578.283 80.2423 545.472C80.4635 543.596 79.1288 541.399 77.0314 541.62C72.8061 541.674 68.4435 541.17 64.2945 541.918ZM151.95 587.649C151.447 590.31 151.599 593.071 151.759 595.771C152.667 597.411 154.429 598.631 153.887 600.79C150.12 601.491 147.16 604.878 147.199 608.752C147.176 620.215 147.153 631.678 147.191 643.149C146.924 645.636 149.258 648.015 151.767 647.741C159.158 647.764 166.556 647.825 173.954 647.725C176.196 647.832 178.926 646.414 178.652 643.82C178.881 633.166 178.659 622.503 178.736 611.841C178.69 609.164 178.903 606.197 177.172 603.962C176.074 602.33 174.152 601.629 172.459 600.828C172.375 599.943 172.306 599.074 172.238 598.212C173.42 597.175 174.701 596.008 174.48 594.269C174.32 591.851 175.41 588.457 173 586.863C167.73 586.306 162.399 586.794 157.098 586.611C155.397 586.764 153.209 586.138 151.95 587.649Z" fill="#9BA9DD"/>
<path d="M237.89 538.303C244.708 530.577 250.962 522.363 257.704 514.575C258.818 525.162 259.245 535.809 260.099 546.418C257.941 547.592 255.851 549.217 253.395 549.636C247.294 547.524 241.596 543.672 237.89 538.303Z" fill="#9BA9DD"/>
<path d="M244.006 146.617C243.831 144.817 245.013 142.705 247.042 142.88C250.855 142.75 254.692 142.689 258.505 142.926C260.328 143.002 261.548 144.863 261.48 146.579C261.594 150.232 261.335 153.908 261.823 157.546C254.936 164.609 249.17 172.732 244.601 181.472C244.136 179.794 243.892 178.063 243.953 176.324C244.083 166.424 243.945 156.517 244.006 146.617Z" fill="#B0C0EA"/>
<path d="M190.184 147.708C198.726 147.319 207.314 147.647 215.871 147.555C219.006 147.334 221.477 150.431 221.05 153.443C221.088 187.756 221.042 222.07 221.088 256.383C221.339 258.991 219.547 262.134 216.618 261.92C208.221 262.065 199.824 261.897 191.427 261.981C188.673 262.324 185.829 260.059 186.088 257.184C185.981 222.36 186.073 187.528 186.05 152.703C185.821 150.225 187.568 147.731 190.184 147.708Z" fill="#B0C0EA"/>
<path d="M223.521 160.3C223.444 158.614 223.727 156.219 225.793 155.914C229.843 155.541 233.939 155.746 237.996 155.83C239.644 155.663 240.994 157.203 240.956 158.79C241.329 168.529 240.59 178.307 241.36 188.039C231.132 211.354 227.464 236.973 226.739 262.256C225.305 261.524 223.345 260.746 223.566 258.77C223.467 225.952 223.589 193.118 223.521 160.3Z" fill="#B0C0EA"/>
<path d="M87.2133 176.339C87.2743 175.012 88.6166 173.952 89.9284 174.173C97.3341 174.196 104.755 174.158 112.168 174.204C113.206 174.219 114.884 174.12 114.998 175.546C115.402 179.039 114.922 182.57 115.303 186.071C118.4 186.048 121.893 186.132 124.12 188.641C126.652 190.609 126.957 193.949 126.888 196.916C126.911 216.51 126.842 236.103 126.911 255.697C126.827 257.375 127.056 259.182 126.331 260.753C125.47 261.752 124.158 262.263 122.854 262.241C108.324 262.263 93.7876 262.164 79.2508 262.241C77.0238 262.355 75.1476 260.158 75.4374 257.977C75.3382 237.392 75.4374 216.807 75.3764 196.222C75.2162 192.828 76.7034 189.16 79.7923 187.482C81.8897 186.048 84.5134 186.124 86.9463 185.957C87.3429 182.761 86.9387 179.535 87.2133 176.339Z" fill="#B0C0EA"/>
<path d="M138.176 202.232C139.007 200.623 141.097 200.875 142.615 200.837C148.152 200.989 153.712 200.631 159.234 200.974C161.842 202.4 160.622 205.962 160.889 208.372C161.415 211.072 157.678 212.17 158.692 214.946C162.124 216.09 165.373 218.958 165.297 222.84C165.373 234.288 165.343 245.736 165.305 257.176C165.442 259.602 163.474 262.134 160.904 261.905C153.285 262.027 145.666 261.974 138.054 261.935C135.514 262.141 133.287 259.724 133.585 257.222C133.554 246.522 133.592 235.821 133.531 225.121C133.516 222.81 133.608 220.293 135.118 218.401C136.307 216.685 138.321 215.976 140.029 214.916C141.349 212.879 138.794 211.529 138.138 209.89C137.932 207.342 137.947 204.772 138.176 202.232Z" fill="#B0C0EA"/>
<path d="M50.9932 217.532C51.1382 215.762 50.2687 212.696 52.633 212.163C57.6973 211.758 62.7996 212.124 67.8791 211.964C69.3359 212.086 71.357 211.575 72.3027 213.032C72.9663 215.206 72.6154 217.524 72.501 219.751C71.5858 220.644 69.946 221.284 70.1291 222.825C70.1596 233.007 70.1138 243.196 70.1291 253.378C70.2053 255.613 69.496 257.901 67.78 259.411C64.775 262.851 58.8184 262.782 55.8058 259.38C53.9372 257.672 53.4491 255.048 53.5025 252.623C53.5254 242.952 53.5101 233.274 53.5635 223.595C54.0821 221.033 50.4365 220.163 50.9932 217.532Z" fill="#B0C0EA"/>
<path d="M73.3247 341.857C78.5873 341.72 83.8651 341.644 89.1276 341.903C89.2649 351.879 88.9598 361.847 89.2572 371.816C83.8803 370.794 78.511 369.787 73.0883 369.047C73.5383 359.994 73.1035 350.918 73.3247 341.857Z" fill="#B0C0EA"/>
<path d="M94.5808 341.812C99.8357 341.781 105.106 341.606 110.361 341.911C110.399 351.604 110.101 361.306 110.49 370.992C112.077 371.022 113.671 371.038 115.265 371.023C115.616 361.329 115.25 351.62 115.387 341.918C120.642 341.644 125.912 341.705 131.175 341.857C131.411 347.067 131.319 352.291 131.243 357.508C128.81 357.889 126.659 359.353 125.744 361.687C123.41 366.896 124.188 372.952 126.187 378.138C126.614 379.359 127.353 381.441 125.599 381.944C122.099 382.692 118.598 381.235 115.295 380.221C115.311 378.573 115.311 376.933 115.295 375.301C113.602 375.103 111.886 375.156 110.201 375.4C110.04 376.041 109.72 377.315 109.568 377.955C103.268 375.049 96.4799 373.516 89.7682 371.907C91.3546 371.35 94.7791 371.945 94.4283 369.36C94.5122 360.177 94.23 350.987 94.5808 341.812Z" fill="#B0C0EA"/>
<path d="M136.628 341.88C141.875 341.674 147.145 341.674 152.4 341.896C152.698 351.742 152.171 361.596 152.652 371.434C154.276 371.35 155.908 371.274 157.541 371.19C158.151 361.42 157.426 351.62 157.876 341.85C163.139 341.751 168.409 341.56 173.656 341.934C173.717 351.582 173.443 361.237 173.786 370.878C175.296 370.969 176.798 371.061 178.309 371.167C178.324 372.449 178.339 373.73 178.354 375.019C176.898 375.111 175.418 375.141 173.999 375.507C173.557 376.689 173.626 377.978 173.595 379.229C173.702 389.388 173.633 399.562 173.618 409.729C173.534 415.037 167.265 418.95 162.468 416.646C159.302 415.548 157.708 412.086 157.769 408.913C157.678 397.739 157.823 386.558 157.693 375.377C155.977 375.194 154.261 375.133 152.545 375.24C152.362 386.223 152.476 397.213 152.461 408.196C152.438 410.255 152.187 412.467 150.86 414.145C149.54 415.952 147.344 416.707 145.391 417.607C142.821 415.418 140.495 412.909 137.589 411.14C139.511 404.1 141.906 397.16 143.05 389.93C143.431 387.626 143.37 385.262 142.844 382.989C141.349 376.277 139.152 369.711 136.117 363.533C137.162 356.371 136.224 349.095 136.628 341.88Z" fill="#B0C0EA"/>
<path d="M74.362 419.857C79.6398 422.504 84.887 425.211 90.1496 427.889C82.5227 427.759 74.8882 427.949 67.2613 427.805C67.1774 425.349 67.1774 422.901 67.269 420.452C69.6409 420.368 72.0129 420.193 74.362 419.857Z" fill="#B0C0EA"/>
<path d="M148.64 420.506C158.852 420.094 169.095 420.147 179.315 420.429C179.529 422.893 179.498 425.364 179.209 427.827C171.963 428.247 164.603 427.133 157.426 428.399C154.452 425.822 151.584 423.122 148.64 420.506Z" fill="#B0C0EA"/>
<path d="M44.396 528.922C48.3543 528.304 52.4347 528.678 56.4388 528.662C58.5057 528.571 60.2294 530.401 60.0006 532.46C60.0234 569.344 59.9853 606.235 60.0082 643.119C60.2217 645.041 59.3752 647.458 57.1405 647.619C53.1059 647.878 49.0331 647.908 45.0061 647.603C43.2214 647.405 42.3825 645.414 42.5198 643.813C42.4664 606.723 42.5427 569.634 42.5045 532.544C42.3367 531.065 43.0689 529.6 44.396 528.922Z" fill="#B0C0EA"/>
<path d="M110.025 530.523C112.527 529.867 115.112 531.858 115.585 534.306C123.342 568.276 131.274 602.208 139 636.186C139.823 638.672 138.046 641.433 135.552 642.013C127.735 643.843 119.887 645.544 112.092 647.451C109.865 648.091 107.013 647.939 105.586 645.88C104.58 643.515 104.206 640.96 103.634 638.489C96.6172 607.974 89.5395 577.482 82.5533 546.967C81.9889 544.145 80.5321 541.018 82.0499 538.272C82.7363 536.785 84.4752 536.426 85.9014 536.03C93.9554 534.26 101.964 532.262 110.025 530.523Z" fill="#B0C0EA"/>
<path d="M64.2945 541.918C68.4435 541.17 72.8061 541.674 77.0314 541.62C79.1288 541.399 80.4635 543.596 80.2423 545.472C80.2499 578.283 80.2576 611.093 80.2194 643.904C80.5398 645.88 78.9915 647.695 76.978 647.71C73.1951 647.817 69.3816 647.893 65.5987 647.664C64.0657 647.626 62.5556 646.246 62.7158 644.667C62.7081 611.597 62.7081 578.527 62.7158 545.464C62.6014 544.076 63.0056 542.619 64.2945 541.918Z" fill="#B0C0EA"/>
<path d="M197.536 563.67C204.431 566.278 212.012 563.83 217.686 559.597C219.959 560.321 222.972 559.216 224.787 560.871C225.588 564.257 224.924 567.811 225.16 571.274C227.784 571.808 230.591 571.991 232.947 573.394C235.861 575.209 237.203 578.794 237.112 582.119C237.135 601.69 237.02 621.253 237.135 640.823C237.058 642.593 237.272 644.499 236.486 646.154C235.586 648.259 232.917 647.573 231.102 647.802C216.39 647.603 201.662 647.992 186.95 647.611C185.844 646.063 185.218 644.255 185.356 642.341C185.394 622.275 185.394 602.201 185.386 582.127C185.356 579.137 186.164 575.865 188.673 573.996C191.007 571.83 194.371 571.891 197.315 571.297C197.307 568.749 197.376 566.209 197.536 563.67Z" fill="#B0C0EA"/>
<path d="M151.95 587.649C153.209 586.138 155.397 586.764 157.098 586.611C162.399 586.794 167.73 586.306 173 586.863C175.41 588.457 174.32 591.851 174.48 594.269C174.701 596.008 173.42 597.174 172.238 598.212C172.306 599.074 172.375 599.943 172.459 600.828C174.152 601.629 176.074 602.33 177.172 603.962C178.903 606.197 178.69 609.164 178.736 611.841C178.659 622.503 178.881 633.166 178.652 643.82C178.926 646.414 176.196 647.832 173.954 647.725C166.556 647.825 159.157 647.764 151.767 647.741C149.258 648.015 146.924 645.636 147.191 643.149C147.153 631.678 147.176 620.215 147.199 608.752C147.16 604.878 150.12 601.491 153.887 600.79C154.429 598.631 152.667 597.411 151.759 595.771C151.599 593.071 151.447 590.31 151.95 587.649Z" fill="#B0C0EA"/>
<path d="M241.474 597.815C246.6 597.22 251.801 597.808 256.957 597.541C253.982 613.976 250.444 630.313 246.31 646.497C243.45 644.942 242.145 641.662 242.321 638.527C242.298 628.201 242.489 617.874 242.252 607.562C241.062 606.403 239.415 605.328 239.606 603.444C239.606 601.491 238.927 598.441 241.474 597.815Z" fill="#B0C0EA"/>
<path d="M516.065 178.688C544.886 178.589 573.708 178.719 602.53 178.627C604.773 178.589 607.328 178.795 608.884 180.656C612.277 184.149 609.967 191.265 604.849 191.326C575.249 191.456 545.649 191.333 516.057 191.394C515.935 187.162 515.881 182.921 516.065 178.688Z" fill="#CCD6F2"/>
<path d="M543.826 204.505C543.986 201.363 543.43 198.167 544.101 195.078C544.177 196.192 544.261 197.305 544.353 198.419C573.403 198.48 602.462 198.434 631.512 198.442C634.708 198.114 638.011 200.432 638.323 203.727C639.033 207.335 636.073 211.224 632.321 211.14C603.026 211.285 573.716 210.988 544.429 211.293C544.337 211.911 544.17 213.146 544.078 213.764C543.414 210.729 543.979 207.586 543.826 204.505Z" fill="#CCD6F2"/>
<path d="M524.736 220.407C555.488 220.178 586.247 220.384 617.006 220.293C622.238 220.018 627.493 222.588 630.368 226.981C634.006 232.412 633.678 240.199 629.499 245.255C626.723 248.787 622.261 250.823 617.792 250.823C586.75 250.884 555.701 250.739 524.652 250.899C524.736 240.733 524.599 230.566 524.736 220.407Z" fill="#CCD6F2"/>
<path d="M312.671 193.927C319.589 188.435 328.329 185.324 337.123 184.813C348.113 184.302 358.791 189.869 365.487 198.449C373.465 198.892 381.061 202.69 386.324 208.677C394.515 217.906 398.862 229.941 401.143 241.907C401.822 256.398 401.333 270.935 401.471 285.449C401.608 292.84 401.005 300.299 399.023 307.453C388.818 307.483 378.605 307.369 368.401 307.491C363.985 307.46 360.202 311.541 360.392 315.926C360.331 327.16 360.392 338.402 360.377 349.644C358.989 350.117 357.609 350.605 356.213 351.048C350.523 352.741 344.574 353.603 338.633 353.587C327.414 353.389 315.928 354.526 305.059 351.04C291.537 346.96 279.464 338.273 271.379 326.688C264.179 316.536 260.259 304.219 259.855 291.81C259.611 271.911 259.886 252.005 259.908 232.099C271.921 229.59 284.452 226.082 293.619 217.478C301.193 210.629 304.64 200.348 312.671 193.927ZM282.865 230.375C283.056 231.42 283.254 232.48 283.445 233.533C293.001 231.809 303.046 236.08 308.766 243.844C309.62 243.234 310.482 242.632 311.336 242.022C304.953 233.228 293.604 228.514 282.865 230.375ZM349.921 242.022C350.775 242.624 351.622 243.219 352.476 243.837C358.257 236.004 368.309 231.901 377.934 233.449C378.064 232.419 378.201 231.397 378.338 230.375C367.615 228.522 356.297 233.243 349.921 242.022ZM292.445 253.744C287.174 256.467 285.504 263.392 287.258 268.746C288.547 273.238 293.36 277.189 298.165 275.458C304.625 273.094 306.57 264.475 303.748 258.679C302.032 254.423 296.8 251.494 292.445 253.744ZM362.429 253.615C357.975 255.628 355.893 260.921 356.297 265.573C356.548 270.874 360.926 276.747 366.746 275.74C373.48 274.36 376.058 265.962 373.983 260.052C372.664 255.308 367.318 251.349 362.429 253.615ZM322.113 291.734C321.061 293.419 323.349 294.189 324.455 294.945C329 297.66 335.178 297.172 339.045 293.473C340.135 292.969 338.999 290.994 338.03 291.429C335.91 292.771 333.752 294.487 331.082 294.334C328.138 294.495 325.614 292.84 323.219 291.375C322.944 291.467 322.388 291.642 322.113 291.734ZM310.383 311.83C309.941 312.532 309.803 313.249 309.956 313.996C322.502 320.899 338.877 321.89 351.202 313.966C352.148 313.165 350.493 311.281 349.539 312.303C342.591 316.246 334.415 318.054 326.476 316.895C320.817 316.262 315.569 314.027 310.383 311.83Z" fill="#F9C9A5"/>
<path d="M481.225 333.628C483.666 332.293 486.297 331.317 489.02 330.745C493.825 330.394 497.752 333.628 500.506 337.205C504.906 342.902 508.773 349.05 511.74 355.624C513.426 359.537 514.745 363.602 515.927 367.697C516.293 369.139 516.644 370.588 516.949 372.052C517.704 376.155 518.406 380.282 518.642 384.453C516.789 387.192 514.44 389.609 511.542 391.234C503.32 396.405 493.672 398.304 484.489 400.973C483.391 400.676 482.278 400.409 481.195 400.127C478.167 399.379 476.161 396.74 475.566 393.789C481.591 389.121 487.395 384.164 493.329 379.366C492.864 378.756 492.406 378.146 491.956 377.544C486.091 382.082 480.447 386.879 474.696 391.546C474.818 391.852 475.062 392.462 475.185 392.767C471.737 392.675 467.756 392.591 465.231 389.891C462.936 387.085 462.982 383.21 463.165 379.793C464.537 380.03 465.506 378.947 466.452 378.138C473.247 371.785 480.241 365.638 487.037 359.285C486.388 358.743 485.664 357.248 484.733 358.286C478.502 363.739 472.53 369.482 466.307 374.95C464.812 376.194 463.477 377.62 462.295 379.168C460.564 377.864 458.581 376.636 457.688 374.569C456.903 372.967 457.094 371.129 457.231 369.413C457.681 368.368 458.177 367.346 458.672 366.324C456.522 364.189 454.173 361.809 453.883 358.621C454.203 355.944 456.171 353.847 457.795 351.833C464.629 344.626 472.63 338.57 481.225 333.628ZM483.437 344.71C475.162 351.414 466.887 358.126 458.589 364.799C458.794 365.333 459.214 366.401 459.42 366.927C467.832 360.803 475.635 353.854 483.864 347.471C484.459 346.861 485.427 346.479 485.664 345.595C485.427 344.58 484.283 343.764 483.437 344.71Z" fill="#F9C9A5"/>
<path d="M125.744 361.687C126.659 359.353 128.81 357.889 131.243 357.508C133.165 359.247 134.912 361.214 136.117 363.533C139.152 369.711 141.349 376.277 142.844 382.989C143.37 385.262 143.431 387.626 143.05 389.93C141.906 397.16 139.511 404.1 137.589 411.14C126.37 417.783 116.478 426.653 108.965 437.331C103.954 434.943 99.0654 432.335 94.0851 429.887C92.7732 429.208 91.4767 428.522 90.1496 427.888C84.887 425.211 79.6398 422.504 74.362 419.857C66.491 415.594 58.3684 411.75 50.7492 407.037C46.8061 404.398 46.9815 399.097 47.5993 394.94C56.1337 397.267 64.6225 399.753 73.134 402.163C72.9205 402.91 72.7069 403.666 72.4934 404.428C78.7322 399.562 86.7404 396.695 94.6952 397.671C100.659 398.334 106.067 401.362 110.483 405.313C111.39 406.396 112.245 404.901 113.03 404.489C107.356 398.884 99.6679 394.979 91.5606 395.139C87.0912 394.963 82.8583 396.466 78.6254 397.663C82.4159 391.257 86.9234 384.644 93.841 381.334C93.7647 380.892 93.6046 380.007 93.5283 379.565C82.088 376.3 70.3197 374.325 58.643 372.159C61.4802 366.98 68.2986 368.605 73.0883 369.047C78.511 369.787 83.8803 370.794 89.2572 371.816L89.7682 371.907C96.4799 373.517 103.268 375.05 109.568 377.955C111.451 378.764 113.358 379.534 115.295 380.221C118.598 381.235 122.099 382.692 125.599 381.944C127.353 381.441 126.614 379.359 126.187 378.138C124.188 372.952 123.41 366.896 125.744 361.687Z" fill="#F9C9A5"/>
<path d="M47.7518 373.608C51.0848 371.938 54.9058 372.723 58.4447 373.105C58.3837 373.425 58.254 374.073 58.193 374.394C68.6189 376.476 79.1211 378.26 89.4327 380.854C86.5726 383.264 83.9337 385.91 81.5465 388.793C71.0214 384.957 59.8099 383.515 48.9263 381.021C48.7814 381.578 48.4916 382.684 48.3467 383.241C58.9481 385.773 69.7935 387.344 80.2041 390.646C78.1678 393.758 76.1085 396.87 74.4382 400.203C66.8114 397.709 59.0091 395.772 51.3288 393.453C50.1238 393.217 48.606 392.332 47.7518 393.728C46.0892 391.989 43.9765 390.181 43.9384 387.565C43.9307 385.033 46.2722 383.653 48.0187 382.287C47.0578 381.471 45.9671 380.785 45.2426 379.748C44.2968 377.452 45.5324 374.63 47.7518 373.608Z" fill="#F9C9A5"/>
<path d="M241.932 247.46C245.6 241.007 256.179 241.778 259.565 248.085C259.725 262.614 259.573 277.166 259.611 291.695C254.837 289.896 250.421 287.119 246.844 283.466C237.714 274.283 234.991 258.656 241.932 247.46Z" fill="#E8AD85"/>
<path d="M401.677 248.131C404.209 243.387 410.654 241.816 415.428 243.845C418.044 245.141 419.6 247.749 420.988 250.198C424.702 259.342 423.642 270.111 418.456 278.478C414.444 284.572 408.411 289.148 401.646 291.779C401.616 277.235 401.585 262.675 401.677 248.131Z" fill="#E8AD85"/>
<path d="M305.06 351.04C315.928 354.526 327.414 353.389 338.633 353.587C344.574 353.603 350.523 352.741 356.213 351.048C356.228 354.373 356.221 357.706 356.297 361.039C356.213 370.984 356.16 380.937 356.19 390.883C350.371 397.923 341.859 402.91 332.623 403.33C322.045 404.169 311.672 398.998 305.067 390.875C305.037 381.182 305.151 371.488 304.892 361.802C305.151 358.217 304.968 354.625 305.06 351.04Z" fill="#E8AD85"/>
<path d="M511.542 391.234C514.44 389.609 516.789 387.192 518.642 384.453C518.719 393.262 517.62 402.018 516.736 410.766C513.67 413.344 509.505 413.969 505.623 414.008C499.674 413.939 493.199 412.795 488.989 408.204C486.999 406.121 485.656 403.566 484.489 400.973C493.672 398.304 503.32 396.405 511.542 391.234Z" fill="#E8AD85"/>
<path d="M443.426 268.517C498.233 268.487 553.04 268.51 607.846 268.502C626.212 268.609 644.585 268.296 662.943 268.662C655.598 276.579 647.75 284.023 640.192 291.749C634.365 297.362 629.125 303.54 623.268 309.123C611.522 320.792 599.952 332.637 588.238 344.329C581.015 351.597 570.848 355.898 560.575 355.685C544.299 355.593 528.016 355.799 511.74 355.624C508.773 349.05 504.906 342.902 500.506 337.205C497.752 333.628 493.825 330.394 489.02 330.745C489.088 326.047 489.134 321.341 489.119 316.643C489.165 313.478 487.883 309.878 484.863 308.436C482.819 307.346 480.432 307.453 478.197 307.407C466.558 307.46 454.927 307.407 443.289 307.468C443.525 294.479 443.251 281.498 443.426 268.517ZM509.391 315.064C507.065 317.566 503.495 317.696 500.414 318.542C503.64 319.038 507.255 319.358 509.681 321.814C511.992 324.049 512.335 327.397 512.96 330.379C514.341 327.702 514.135 324.285 516.431 322.111C518.902 319.419 522.769 319 526.193 318.603C523.066 317.696 519.588 317.406 516.964 315.308C514.326 312.974 514.066 309.253 512.983 306.118C512.365 309.26 512.16 312.936 509.391 315.064Z" fill="#E1E5F5"/>
<path d="M245.822 286.982C245.921 285.754 246.432 284.61 246.844 283.466C250.421 287.119 254.837 289.896 259.611 291.695L259.855 291.81C260.259 304.219 264.18 316.536 271.379 326.688C279.464 338.273 291.537 346.96 305.06 351.04C304.968 354.625 305.151 358.217 304.892 361.802C299.736 364.593 295.999 369.314 292.887 374.165C292.17 373.379 291.453 372.601 290.744 371.823C285.771 374.653 281.363 378.421 277.893 382.981C269.076 386.917 259.611 390.715 253.151 398.205C250.428 401.133 250.177 405.221 250.047 409.004C247.835 412.772 244.983 416.151 242.534 419.781C232.391 414.076 223.742 404.832 220.722 393.385C216.336 377.856 219.707 361.192 226.083 346.708C228.936 339.707 233.703 333.72 236.791 326.848C242.679 314.431 245.44 300.672 245.822 286.982Z" fill="#231A18"/>
<path d="M322.113 291.734C322.388 291.642 322.945 291.467 323.219 291.375C325.614 292.839 328.138 294.495 331.082 294.334C333.752 294.487 335.91 292.771 338.03 291.429C338.999 290.994 340.135 292.969 339.045 293.473C335.178 297.172 329 297.66 324.455 294.945C323.349 294.189 321.061 293.419 322.113 291.734Z" fill="#C9886F"/>
<path d="M483.437 344.71C484.283 343.764 485.427 344.58 485.664 345.595C485.427 346.479 484.459 346.861 483.864 347.471C475.634 353.854 467.832 360.803 459.42 366.927C459.214 366.401 458.794 365.333 458.588 364.799C466.886 358.126 475.162 351.414 483.437 344.71Z" fill="#C9886F"/>
<path d="M484.733 358.286C485.664 357.248 486.388 358.743 487.037 359.285C480.241 365.638 473.247 371.785 466.452 378.138C465.506 378.947 464.537 380.03 463.165 379.793L462.295 379.168C463.477 377.62 464.812 376.194 466.307 374.95C472.53 369.482 478.502 363.739 484.733 358.286Z" fill="#C9886F"/>
<path d="M58.643 372.159C70.3197 374.325 82.088 376.3 93.5283 379.565C93.6045 380.007 93.7647 380.892 93.841 381.334C86.9234 384.644 82.4159 391.257 78.6254 397.663C82.8583 396.466 87.0912 394.963 91.5606 395.139C99.6679 394.979 107.356 398.884 113.03 404.489C112.245 404.901 111.39 406.396 110.483 405.313C106.067 401.362 100.659 398.334 94.6952 397.671C86.7404 396.695 78.7322 399.562 72.4934 404.428C72.7069 403.666 72.9205 402.91 73.134 402.163C64.6224 399.753 56.1337 397.267 47.5993 394.94C47.6374 394.635 47.7137 394.033 47.7518 393.728C48.606 392.332 50.1238 393.217 51.3288 393.453C59.0091 395.772 66.8114 397.709 74.4382 400.203C76.1085 396.87 78.1678 393.758 80.2041 390.646C69.7935 387.344 58.9481 385.773 48.3467 383.241C48.4916 382.684 48.7814 381.578 48.9264 381.021C59.8099 383.515 71.0214 384.957 81.5465 388.793C83.9337 385.91 86.5726 383.264 89.4327 380.854C79.1211 378.26 68.6189 376.476 58.193 374.394C58.254 374.073 58.3837 373.425 58.4447 373.105L58.643 372.159Z" fill="#C9886F"/>
<path d="M474.696 391.546C480.447 386.879 486.091 382.082 491.956 377.544C492.406 378.146 492.864 378.756 493.329 379.366C487.395 384.164 481.591 389.121 475.566 393.789C475.467 393.529 475.276 393.026 475.184 392.767C475.062 392.462 474.818 391.852 474.696 391.546Z" fill="#C9886F"/>
<path d="M360.393 315.926C360.202 311.541 363.985 307.46 368.401 307.491C378.606 307.369 388.818 307.483 399.023 307.453C403.515 307.453 407.999 307.407 412.492 307.475C422.757 307.529 433.023 307.521 443.289 307.468C454.928 307.407 466.559 307.46 478.197 307.407C480.432 307.453 482.819 307.346 484.863 308.436C487.883 309.878 489.165 313.478 489.119 316.643C489.134 321.341 489.088 326.047 489.02 330.745C486.297 331.317 483.666 332.293 481.225 333.628C480.775 328.579 481.103 323.507 481.004 318.443C471.432 318.252 461.86 318.382 452.296 318.367C452.052 329.433 452.052 340.523 452.304 351.582C454.134 351.658 455.965 351.742 457.795 351.833C456.171 353.847 454.203 355.944 453.883 358.621C454.173 361.809 456.522 364.189 458.672 366.324C458.177 367.346 457.681 368.368 457.231 369.413C455.08 369.177 452.929 369.001 450.779 369.032C424.58 369.207 398.367 368.872 372.176 369.2C371.985 383.981 372.054 398.769 372.153 413.55C395.537 413.68 418.921 413.558 442.305 413.588C455.202 413.458 468.122 413.878 481.004 413.375C481.05 408.959 480.867 404.535 481.195 400.127C482.278 400.409 483.391 400.676 484.489 400.973C485.656 403.566 486.999 406.121 488.989 408.204C488.989 431.336 489.012 454.468 489.02 477.608C488.966 479.271 489.02 480.987 488.532 482.604C487.464 485.578 484.337 487.378 481.286 487.546C466.459 487.767 451.61 487.279 436.791 487.759C426.464 487.256 416.114 487.576 405.78 487.599C403.545 487.683 401.311 487.576 399.084 487.462C398.191 487.515 397.314 487.615 396.452 487.775C392.936 487.538 389.42 487.447 385.904 487.63C380.055 487.599 374.205 487.721 368.355 487.569C363.954 487.493 360.072 483.534 360.263 479.103C360.332 440.458 360.133 401.797 360.37 363.152C360.393 358.644 360.362 354.144 360.377 349.644C360.393 338.402 360.332 327.16 360.393 315.926ZM372.245 318.344C371.97 321.021 371.894 323.728 372.306 326.398C396.155 326.268 420.004 326.436 443.853 326.344C444.265 323.69 444.319 320.998 443.846 318.359C419.981 318.344 396.109 318.359 372.245 318.344ZM372.207 331.203C372.008 333.735 371.985 336.282 372.214 338.822C396.132 338.921 420.065 338.982 443.983 338.799C444.242 336.267 444.219 333.72 443.93 331.203C441.901 331.088 439.865 331.027 437.843 331.058C415.962 331.226 394.08 330.867 372.207 331.203ZM372.29 343.581C371.955 346.258 371.978 348.958 372.245 351.643C396.14 351.566 420.042 351.719 443.937 351.574C444.265 348.912 444.311 346.212 443.83 343.573C419.989 343.688 396.14 343.642 372.29 343.581ZM479.806 436.598C475.207 436.507 470.608 436.499 466.009 436.553C465.857 441.045 465.781 445.552 466.025 450.045C470.357 450.029 474.696 450.151 479.028 449.976C479.41 447.184 479.387 444.347 478.83 441.586C481.202 438.688 483.467 435.698 485.961 432.915C485.42 432.289 484.863 431.694 484.306 431.107C482.75 432.892 481.286 434.753 479.806 436.598ZM372.229 437.048C371.985 440.908 372.039 444.79 372.107 448.656C371.772 450.205 373.61 449.808 374.502 449.915C400.342 449.846 426.19 449.923 452.037 449.892C452.273 445.621 452.174 441.335 452.098 437.056C436.676 436.652 421.224 437.018 405.788 436.881C394.599 436.98 383.403 436.675 372.229 437.048ZM479.692 460.135C475.131 459.891 470.555 459.944 465.994 460.059C465.857 464.551 465.689 469.058 466.124 473.535C470.395 473.482 474.666 473.482 478.945 473.535C479.517 470.752 479.402 467.876 478.723 465.131C480.958 462.263 483.338 459.51 485.549 456.634C486.449 455.757 484.916 455.109 484.322 454.727C482.468 456.207 481.294 458.388 479.692 460.135ZM372.207 460.181C371.993 464.444 372.031 468.715 372.191 472.986C384.631 473.406 397.093 473.001 409.54 473.177C423.734 473.047 437.935 473.39 452.121 472.979C452.212 468.723 452.197 464.467 452.121 460.211C425.48 460.082 398.84 460.127 372.207 460.181Z" fill="#FAFAFF"/>
<path d="M310.383 311.83C315.569 314.027 320.817 316.262 326.476 316.895C334.415 318.054 342.591 316.246 349.539 312.303C350.493 311.281 352.148 313.165 351.202 313.966C338.877 321.89 322.502 320.899 309.956 313.996C309.803 313.249 309.941 312.532 310.383 311.83Z" fill="#EF896A"/>
<path d="M372.245 318.343C396.109 318.359 419.981 318.343 443.846 318.359C444.318 320.998 444.265 323.69 443.853 326.344C420.004 326.435 396.155 326.268 372.306 326.397C371.894 323.728 371.97 321.02 372.245 318.343Z" fill="#E2E2F2"/>
<path d="M452.296 318.367C461.86 318.382 471.432 318.252 481.004 318.443C481.103 323.507 480.775 328.579 481.225 333.628C472.629 338.57 464.629 344.626 457.795 351.833C455.965 351.742 454.134 351.658 452.304 351.582C452.052 340.523 452.052 329.433 452.296 318.367Z" fill="#E2E2F2"/>
<path d="M372.207 331.203C394.08 330.867 415.962 331.226 437.843 331.058C439.864 331.027 441.901 331.088 443.93 331.203C444.219 333.72 444.242 336.267 443.983 338.799C420.065 338.982 396.132 338.921 372.214 338.822C371.985 336.282 372.008 333.735 372.207 331.203Z" fill="#E2E2F2"/>
<path d="M372.29 343.581C396.14 343.642 419.989 343.688 443.83 343.573C444.311 346.212 444.265 348.912 443.937 351.574C420.042 351.719 396.14 351.566 372.245 351.643C371.978 348.958 371.955 346.258 372.29 343.581Z" fill="#E2E2F2"/>
<path d="M372.176 369.2C398.367 368.872 424.58 369.207 450.779 369.032C452.929 369.001 455.08 369.177 457.231 369.413C457.094 371.129 456.903 372.967 457.688 374.569C458.581 376.636 460.564 377.864 462.295 379.168L463.165 379.793C462.982 383.21 462.936 387.085 465.231 389.891C467.756 392.591 471.737 392.675 475.185 392.767C475.276 393.026 475.467 393.529 475.566 393.789C476.161 396.74 478.167 399.379 481.194 400.127C480.867 404.535 481.05 408.959 481.004 413.375C468.122 413.878 455.202 413.458 442.305 413.588C418.921 413.558 395.537 413.68 372.153 413.55C372.054 398.769 371.985 383.981 372.176 369.2Z" fill="#E2E2F2"/>
<path d="M466.009 436.553C470.608 436.499 475.207 436.507 479.806 436.598C477.793 439.077 475.772 441.563 473.774 444.057C472.385 442.616 470.997 441.167 469.617 439.733C469.205 440.419 467.596 441.243 468.664 442.105C470.28 444.027 472.134 445.751 473.819 447.627C475.543 445.651 477.175 443.615 478.83 441.586C479.387 444.347 479.41 447.184 479.028 449.976C474.696 450.151 470.357 450.029 466.025 450.045C465.781 445.552 465.857 441.045 466.009 436.553Z" fill="#E2E2F2"/>
<path d="M372.229 437.048C383.403 436.675 394.599 436.98 405.788 436.881C421.224 437.018 436.676 436.652 452.098 437.056C452.174 441.335 452.273 445.621 452.037 449.892C426.189 449.923 400.342 449.846 374.502 449.915C373.61 449.808 371.772 450.205 372.107 448.656C372.039 444.79 371.985 440.908 372.229 437.048Z" fill="#E2E2F2"/>
<path d="M372.206 460.181C398.839 460.127 425.48 460.082 452.121 460.211C452.197 464.467 452.212 468.723 452.121 472.979C437.935 473.39 423.734 473.047 409.54 473.177C397.093 473.001 384.631 473.406 372.191 472.986C372.031 468.715 371.993 464.444 372.206 460.181Z" fill="#E2E2F2"/>
<path d="M465.994 460.059C470.555 459.944 475.131 459.891 479.692 460.135C477.717 462.568 475.749 465.016 473.743 467.426C472.37 466.008 470.997 464.597 469.617 463.186C469.083 463.689 468.557 464.2 468.038 464.719C469.891 466.93 471.844 469.074 474.04 470.965C475.55 468.982 477.129 467.045 478.723 465.13C479.402 467.876 479.516 470.751 478.944 473.535C474.666 473.482 470.395 473.482 466.124 473.535C465.689 469.058 465.857 464.551 465.994 460.059Z" fill="#E2E2F2"/>
<path d="M356.19 390.883C356.16 380.937 356.213 370.984 356.297 361.039C357.67 361.695 359.027 362.412 360.37 363.152C360.133 401.797 360.331 440.458 360.263 479.103C360.072 483.534 363.954 487.492 368.355 487.569C374.205 487.721 380.055 487.599 385.904 487.63C387.384 489.75 389.207 491.786 389.794 494.38C390.206 496.256 388.734 497.766 387.659 499.108C377.5 511.09 365.922 522.08 352.499 530.348C345.879 534.192 338.641 537.99 330.77 537.776C336.772 528.327 341.31 518 344.658 507.33C350.6 488.812 353.566 469.478 355.328 450.159C356.907 430.451 357.487 410.629 356.19 390.883Z" fill="#DCDCF4"/>
<path d="M292.887 374.165C295.999 369.314 299.736 364.593 304.892 361.802C305.151 371.488 305.037 381.182 305.067 390.875C303.778 410.644 304.32 430.489 305.929 450.22C307.553 468.235 310.292 486.234 315.44 503.616C318.933 515.59 323.814 527.19 330.442 537.784C326.239 538.02 322.174 536.709 318.315 535.214C309.132 531.324 300.88 525.543 293.352 519.068C287.83 514.789 283.407 509.313 278.152 504.744C278.35 497.819 278.037 490.894 277.275 484.015C280.15 481.78 281.859 478.485 284.208 475.77C285.947 473.505 288.059 471.491 289.47 468.99C289.417 468.128 288.898 467.38 288.578 466.618C281.927 454.247 275.139 441.869 270.121 428.712C268.916 425.517 267.634 421.947 268.908 418.568C272.416 409.012 277.038 399.928 281.714 390.898C283.788 386.993 286.465 383.424 288.219 379.351C288.952 379.077 289.676 378.787 290.408 378.505C291.194 377.033 292.002 375.576 292.887 374.165Z" fill="#DCDCF4"/>
<path d="M516.949 372.052C520.053 374.493 522.646 377.612 524.24 381.235C525.918 384.888 525.69 389.03 525.56 392.95C525.194 399.692 522.707 406.991 516.736 410.766C517.62 402.018 518.719 393.263 518.642 384.453C518.406 380.282 517.704 376.155 516.949 372.052Z" fill="#DCDCF4"/>
<path d="M256.957 597.541C257.658 593.475 258.261 589.403 258.894 585.338C260.29 585.536 261.701 585.742 263.119 585.772C273.042 585.765 282.957 585.795 292.879 585.727C294.832 585.818 297.059 585.635 298.691 586.947C300.59 588.518 301.147 591.119 301.124 593.483C301.048 621.71 301.109 649.945 301.086 678.179H237.89C240.78 668.654 243.122 658.975 245.623 649.342C245.852 648.389 246.073 647.436 246.31 646.497C250.443 630.313 253.982 613.977 256.957 597.541Z" fill="#DCDCF4"/>
<path d="M360.148 592.713C360.026 589.387 362.391 585.505 366.105 585.788C378.209 585.826 390.32 585.612 402.432 585.864C407.107 617.096 414.856 647.771 423.253 678.179H360.019C360.324 649.693 360.087 621.199 360.148 592.713Z" fill="#DCDCF4"/>
<path d="M515.927 367.697C524.111 371.549 529.694 379.87 531.265 388.656C532.241 395.2 530.777 401.797 529.282 408.15C526.674 418.149 523.6 428.018 520.992 438.017C516.515 453.927 514.341 470.454 508.819 486.074C506.447 492.839 502.946 499.779 496.769 503.799C491.071 507.566 483.826 507.109 477.412 505.911C462.905 502.373 449.535 495.371 436.791 487.759C451.61 487.279 466.459 487.767 481.286 487.546C484.337 487.378 487.464 485.578 488.532 482.604C489.02 480.987 488.966 479.271 489.02 477.608C489.012 454.468 488.989 431.336 488.989 408.204C493.199 412.795 499.674 413.939 505.623 414.008C509.505 413.969 513.67 413.344 516.736 410.766C522.708 406.991 525.194 399.692 525.56 392.95C525.69 389.03 525.918 384.888 524.241 381.235C522.647 377.612 520.053 374.493 516.949 372.052C516.644 370.588 516.293 369.139 515.927 367.697Z" fill="#ECEBFF"/>
<path d="M282.789 382.12C284.086 380.373 286.32 380.06 288.219 379.351C286.465 383.424 283.788 386.993 281.714 390.898C277.038 399.928 272.416 409.012 268.908 418.568C267.634 421.947 268.916 425.517 270.121 428.712C275.139 441.869 281.927 454.247 288.578 466.618C288.898 467.38 289.417 468.128 289.47 468.99C288.059 471.491 285.947 473.505 284.208 475.77C281.859 478.485 280.15 481.78 277.275 484.015C276.169 476.052 274.438 467.8 269.633 461.165C266.704 457.054 262.059 454.346 257.048 453.751C259.359 437.567 262.57 421.383 268.649 406.152C272.127 397.503 276.55 389.106 282.789 382.12Z" fill="#ECEBFF"/>
<path d="M253.151 398.205C259.611 390.715 269.076 386.917 277.893 382.981C271.715 390.997 267.307 400.226 263.913 409.721C258.841 423.945 255.935 438.833 253.876 453.759C249.338 454.056 244.983 456.093 241.909 459.456C235.983 465.962 233.786 474.87 232.36 483.321C229.927 499.947 230.72 516.886 232.581 533.528C232.894 536.236 234.259 538.661 235.8 540.865C230.049 547.363 224.688 554.357 217.686 559.597C212.012 563.83 204.431 566.278 197.536 563.67C192.823 560.97 189.444 556.592 185.623 552.839C160.347 525.955 136.147 498.086 111.612 470.538C107.669 465.809 103.481 461.294 99.5001 456.611C98.3561 455.589 99.4162 454.277 99.8128 453.179C102.406 447.65 105.426 442.311 108.965 437.331C116.478 426.653 126.37 417.783 137.589 411.14C140.495 412.909 142.821 415.419 145.391 417.607C146.474 418.568 147.557 419.529 148.64 420.506C151.584 423.122 154.452 425.822 157.426 428.399C158.25 429.094 159.081 429.788 159.897 430.505C175.06 444.302 190.42 457.893 205.697 471.568C214.391 458.96 223.467 446.62 232.299 434.112C235.716 429.338 239.125 424.556 242.534 419.781C244.983 416.151 247.835 412.772 250.047 409.004C250.177 405.221 250.428 401.133 253.151 398.205Z" fill="#ECEBFF"/>
<path d="M244.533 461.309C249.826 455.612 259.863 455.368 265.293 460.997C270.563 466.435 272.424 474.153 273.683 481.391C276.077 497.812 274.918 514.522 272.912 530.92C272.508 533.467 272.287 536.282 270.418 538.257C267.398 541.453 263.806 544.069 260.099 546.418C259.245 535.809 258.818 525.162 257.704 514.575C250.962 522.362 244.708 530.577 237.89 538.303C236.86 536.754 236.036 535.054 235.724 533.216C233.909 516.757 233.077 500.008 235.525 483.572C236.906 475.694 238.858 467.289 244.533 461.309Z" fill="#ECEBFF"/>
<path d="M385.904 487.63C389.42 487.447 392.936 487.538 396.452 487.775C396.353 487.95 396.162 488.293 396.063 488.461C396.994 491.641 397.795 494.86 398.176 498.155C392.265 499.352 387.59 505.118 388.444 511.235C389.024 518.008 396.109 523.003 402.706 521.531C402.874 527.251 401.822 532.903 401.783 538.615C401.074 545.182 401.227 551.795 400.632 558.369C400.174 567.559 401.211 576.765 402.432 585.864C390.32 585.612 378.209 585.826 366.105 585.788C362.391 585.505 360.026 589.387 360.148 592.713C360.087 621.199 360.324 649.693 360.019 678.179H301.086C301.109 649.945 301.048 621.71 301.124 593.483C301.147 591.119 300.59 588.518 298.691 586.947C297.059 585.635 294.832 585.818 292.879 585.727C282.957 585.795 273.042 585.765 263.119 585.772C261.701 585.742 260.29 585.536 258.894 585.338C260.442 575.4 260.984 565.317 260.526 555.272C266.193 556.592 272.005 557.316 277.824 557.339C277.732 556.279 277.649 555.219 277.565 554.174C271.761 554.083 265.972 553.366 260.336 551.97C260.282 551.528 260.168 550.643 260.107 550.201C264.53 547.348 268.969 544.412 272.6 540.568C274.285 538.821 275.231 536.51 275.673 534.154C277.038 524.407 277.877 514.583 278.152 504.744C283.407 509.313 287.83 514.789 293.352 519.068C300.88 525.543 309.132 531.324 318.315 535.214C322.174 536.709 326.239 538.02 330.442 537.784L330.77 537.776C338.641 537.99 345.878 534.192 352.499 530.348C365.922 522.08 377.499 511.09 387.658 499.108C388.734 497.766 390.206 496.256 389.794 494.38C389.207 491.786 387.384 489.75 385.904 487.63Z" fill="#ECEBFF"/>
<path d="M399.084 487.462C401.311 487.576 403.545 487.683 405.78 487.599C405.307 491.382 404.941 495.18 404.796 498.994C403.629 498.628 402.447 498.33 401.273 498.033C400.96 494.433 400.144 490.902 399.084 487.462Z" fill="#ECEBFF"/>
<path d="M290.744 371.823C291.453 372.601 292.17 373.379 292.887 374.165C292.002 375.576 291.194 377.033 290.408 378.505C289.676 378.787 288.952 379.077 288.219 379.351C286.32 380.06 284.086 380.373 282.789 382.12C276.55 389.106 272.127 397.503 268.649 406.152C262.57 421.383 259.359 437.567 257.048 453.751C262.059 454.346 266.704 457.054 269.633 461.165C274.438 467.8 276.169 476.052 277.275 484.015C278.038 490.894 278.35 497.819 278.152 504.744C277.877 514.583 277.038 524.407 275.673 534.154C274.628 533.978 273.591 533.81 272.554 533.65C272.645 532.964 272.821 531.606 272.912 530.92C274.918 514.522 276.077 497.812 273.683 481.391C272.424 474.153 270.563 466.435 265.293 460.997C259.863 455.368 249.826 455.612 244.533 461.309C238.858 467.289 236.906 475.694 235.525 483.572C233.077 500.008 233.908 516.757 235.724 533.216C234.671 533.307 233.626 533.414 232.581 533.528C230.72 516.886 229.927 499.947 232.36 483.321C233.786 474.87 235.983 465.962 241.909 459.456C244.983 456.093 249.338 454.056 253.876 453.759C255.935 438.833 258.841 423.945 263.913 409.721C267.307 400.226 271.715 390.997 277.893 382.982C281.363 378.421 285.771 374.653 290.744 371.823Z" fill="#24243A"/>
<path d="M396.452 487.775C397.314 487.614 398.191 487.515 399.084 487.462C400.144 490.902 400.96 494.433 401.273 498.033C402.447 498.33 403.629 498.628 404.796 498.994C409.182 500.916 412.293 505.545 411.95 510.388C411.92 515.689 407.763 520.319 402.706 521.531C396.109 523.003 389.024 518.008 388.444 511.235C387.59 505.118 392.265 499.352 398.176 498.155C397.795 494.86 396.994 491.641 396.063 488.461C396.163 488.293 396.353 487.95 396.452 487.775ZM397.558 504.523C393.775 506.209 392.982 511.944 396.33 514.476C399.534 517.504 405.452 515.384 406.07 511.037C407.191 506.422 401.715 502.243 397.558 504.523Z" fill="#24243A"/>
<path d="M305.067 390.875C311.672 398.998 322.045 404.169 332.623 403.33C341.859 402.91 350.371 397.923 356.19 390.883C357.487 410.629 356.907 430.451 355.328 450.159C353.566 469.478 350.6 488.812 344.658 507.33C341.31 518 336.772 528.327 330.77 537.776L330.442 537.784C323.814 527.19 318.933 515.59 315.44 503.616C310.292 486.234 307.554 468.235 305.929 450.22C304.32 430.489 303.778 410.644 305.067 390.875ZM343.644 438.322C341.623 439.969 338.854 439.962 336.429 440.58C339.022 440.29 341.958 440.595 343.926 442.486C345.566 444.088 345.68 446.498 345.879 448.649C346.496 446.506 346.664 444.004 348.342 442.357C349.989 440.786 352.384 440.557 354.55 440.435C352.43 439.832 349.989 439.718 348.312 438.147C346.611 436.461 346.473 433.906 345.924 431.71C345.718 434.036 345.543 436.682 343.644 438.322Z" fill="#786BDD"/>
<path d="M479.806 436.598C481.286 434.753 482.75 432.892 484.306 431.107C484.863 431.694 485.42 432.289 485.961 432.915C483.467 435.698 481.202 438.688 478.83 441.586C477.175 443.615 475.543 445.651 473.819 447.627C472.134 445.751 470.28 444.027 468.663 442.105C467.596 441.243 469.205 440.419 469.617 439.733C470.997 441.167 472.385 442.616 473.773 444.057C475.772 441.563 477.793 439.077 479.806 436.598Z" fill="#786BDD"/>
<path d="M479.692 460.135C481.294 458.388 482.468 456.207 484.321 454.727C484.916 455.109 486.449 455.757 485.549 456.634C483.338 459.51 480.958 462.263 478.723 465.13C477.129 467.045 475.551 468.982 474.04 470.965C471.844 469.074 469.891 466.93 468.038 464.719C468.557 464.2 469.083 463.689 469.617 463.186C470.997 464.597 472.37 466.008 473.743 467.426C475.749 465.016 477.717 462.568 479.692 460.135Z" fill="#786BDD"/>
<path d="M587.46 573.173C588.291 574.157 589.191 574.34 590.16 573.356C590.297 573.554 590.564 573.958 590.693 574.164C595.102 573.89 599.518 574.141 603.934 573.989C604.612 573.958 605.978 573.89 606.664 573.852C606.763 574.012 606.954 574.324 607.053 574.485C607.023 574.759 606.962 575.308 606.931 575.583C606.222 577.97 606.87 580.426 607.145 582.828C607.617 586.619 608.075 590.409 608.533 594.208C608.967 598.067 609.463 601.926 609.928 605.785C612.918 629.779 615.656 653.804 618.798 677.775L618.31 678.179H577.125C586.232 645.292 595.483 612.443 604.452 579.526C557.806 579.549 511.16 579.434 464.514 579.579C464.865 577.695 465.536 575.895 466.169 574.103C490.217 573.928 514.272 574.073 538.327 574.035C554.534 573.981 570.749 574.065 586.971 573.981L587.818 574.012L587.46 573.173Z" fill="#786BDD"/>
<path d="M577.43 451.105C582.029 443.943 587.368 437.239 593.47 431.29C604.406 438.52 614.688 447.078 622.406 457.763C628.05 465.519 632.077 474.489 633.709 483.961C627.165 490.97 622.864 500.077 621.704 509.603C620.614 516.97 621.277 524.506 622.902 531.736C617.822 540.82 611.187 548.957 603.819 556.279C603.27 556.02 602.736 555.783 602.21 555.539C603.537 559.727 604.49 564.013 605.436 568.299C609.86 555.883 615.725 543.992 623.047 533.025C623.512 533.277 624.442 533.788 624.907 534.039C617.296 545.609 611.08 558.11 606.748 571.274C606.428 572.113 606.397 572.974 606.664 573.852C605.978 573.89 604.612 573.958 603.934 573.989C604.132 570.244 602.774 566.69 602.035 563.075C601.112 559.833 600.601 556.447 599.274 553.343C593.294 548.416 587.254 543.481 582.167 537.593C573.518 527.892 566.798 516.101 564.716 503.15C570.703 506.163 576.881 508.932 583.448 510.404C587.315 500.214 590.076 489.338 589.526 478.355C589.031 468.197 584.966 458.091 577.43 451.105Z" fill="#2C7C61"/>
<path d="M651.274 535.473C663.652 533.04 676.419 534.207 688.744 536.404C686.861 547.913 682.719 559.36 675.077 568.337C669.41 575.102 661.44 579.93 652.761 581.631C642.465 583.805 631.863 581.951 621.903 579.068C619.691 583.827 618.409 588.953 618.005 594.177C617.471 594.177 616.388 594.177 615.847 594.177C616.221 587.748 618.158 581.547 621.155 575.888C620.781 567.041 622.07 557.759 627.135 550.277C632.504 542.047 641.839 537.311 651.274 535.473ZM631.634 555.539C625.724 559.742 623.725 567.407 624.046 574.317C628.645 575.362 633.457 575.423 638.14 574.866C643.784 574.05 649.893 572.12 653.211 567.132C656.414 563.029 657.055 557.591 656.513 552.573C648.253 551.062 638.834 550.429 631.634 555.539Z" fill="#2C7C61"/>
<path d="M523.417 555.356C536.283 553.244 549.76 552.878 562.329 556.775C572.092 559.719 580.923 565.737 586.972 573.981C570.749 574.065 554.534 573.981 538.327 574.035C532.394 568.665 527.375 562.304 523.417 555.356Z" fill="#2C7C61"/>
<path d="M584.638 563.433C586.72 566.606 588.398 570 590.16 573.356C589.191 574.34 588.291 574.157 587.46 573.173C586.331 570.221 584.554 567.597 583.112 564.814C583.494 564.47 584.256 563.776 584.638 563.433Z" fill="#2C7C61"/>
<path d="M607.145 582.828C606.87 580.426 606.222 577.97 606.931 575.583C608.014 581.753 608.998 587.946 609.578 594.192L608.533 594.208C608.075 590.41 607.617 586.619 607.145 582.828Z" fill="#2C7C61"/>
<path d="M546 437.041C557.448 438.841 568.896 443.035 577.43 451.105C584.966 458.091 589.031 468.196 589.527 478.355C590.076 489.338 587.315 500.214 583.448 510.404C576.881 508.932 570.703 506.163 564.716 503.15C554.252 497.118 544.886 487.996 541.515 476.09C537.71 463.109 540.631 449.145 546 437.041Z" fill="#368E7D"/>
<path d="M633.709 483.961C645.302 471.796 662.02 466.374 678.204 463.72C681.247 475.427 680.927 488.187 676.221 499.413C672.072 509.443 664.201 517.626 654.912 523.102C645.729 528.685 635.303 531.683 624.908 534.039C624.442 533.788 623.512 533.277 623.047 533.025C623.008 532.705 622.932 532.064 622.902 531.736C621.277 524.506 620.614 516.97 621.704 509.603C622.864 500.077 627.165 490.97 633.709 483.961Z" fill="#368E7D"/>
<path d="M560.453 539.363C564.61 539.157 568.926 539.706 572.564 541.872C577.85 544.862 581.106 550.452 582.716 556.157C583.456 558.56 583.578 561.13 584.638 563.433C584.256 563.776 583.494 564.47 583.112 564.814C576.172 562.709 569.117 559.536 564.625 553.595C561.482 549.575 560.239 544.404 560.453 539.363Z" fill="#368E7D"/>
<path d="M631.634 555.539C638.834 550.429 648.253 551.062 656.513 552.573C657.055 557.591 656.414 563.029 653.211 567.132C649.893 572.12 643.784 574.05 638.14 574.866C633.457 575.423 628.645 575.362 624.046 574.317C623.725 567.407 625.724 559.742 631.634 555.539Z" fill="#368E7D"/>
<path d="M397.558 504.523C401.715 502.243 407.191 506.422 406.07 511.037C405.452 515.384 399.534 517.504 396.33 514.476C392.982 511.944 393.775 506.209 397.558 504.523Z" fill="#B2B2B2"/>
<path d="M270.418 538.257C272.287 536.282 272.508 533.467 272.912 530.92C272.821 531.606 272.645 532.964 272.554 533.65C273.591 533.81 274.628 533.978 275.673 534.154C275.231 536.51 274.285 538.821 272.6 540.568C268.969 544.412 264.53 547.348 260.107 550.201C260.168 550.643 260.282 551.528 260.336 551.97C265.972 553.366 271.761 554.083 277.565 554.174C277.649 555.219 277.732 556.279 277.824 557.339C272.005 557.316 266.193 556.592 260.526 555.272C257.46 554.685 254.303 552.58 251.199 554.136C244.586 556.638 237.455 557.606 230.408 557.446C230.492 556.371 230.591 555.303 230.69 554.243C236.814 554.22 243.061 553.839 248.804 551.505C244.006 548.584 239.041 545.602 235.8 540.865C234.259 538.661 232.894 536.236 232.581 533.528C233.626 533.414 234.671 533.307 235.724 533.216C236.036 535.054 236.86 536.754 237.89 538.303C241.596 543.672 247.294 547.524 253.395 549.636C255.851 549.217 257.941 547.592 260.099 546.418C263.806 544.069 267.398 541.453 270.418 538.257Z" fill="#B2B2B2"/>
<path d="M464.515 579.579C511.16 579.434 557.806 579.549 604.452 579.526C595.483 612.443 586.232 645.292 577.125 678.179H437.653C438.667 673.268 440.192 668.478 441.504 663.643C447.11 643.309 452.807 622.999 458.405 602.666C460.381 594.955 463.02 587.404 464.515 579.579ZM467.581 587.534C464.408 596.023 461.815 604.717 459.061 613.343C467.642 613.496 476.26 613.587 484.84 613.244C487.563 604.664 490.583 596.183 493.268 587.587C484.703 587.458 476.138 587.534 467.581 587.534ZM502.001 587.58C499.148 596.145 496.25 604.702 493.443 613.282C502.062 613.595 510.718 613.526 519.336 613.305C522.143 604.717 525.156 596.198 527.787 587.565C519.192 587.519 510.596 587.443 502.001 587.58ZM536.489 587.58C533.728 596.198 530.83 604.771 527.955 613.343C536.573 613.526 545.192 613.328 553.81 613.45C556.762 604.824 559.667 596.191 562.421 587.504C553.772 587.557 545.131 587.412 536.489 587.58ZM571.268 587.549C569.193 592.736 567.691 598.12 565.822 603.383C564.793 606.708 563.405 609.934 562.71 613.366C570.917 613.511 579.131 613.427 587.338 613.42C588.619 613.687 588.756 612.177 589.122 611.36C591.67 603.436 594.377 595.558 596.978 587.648C588.405 587.374 579.833 587.557 571.268 587.549ZM459.389 619.651C456.544 628.208 453.654 636.743 450.893 645.323C459.473 645.658 468.076 645.491 476.664 645.384C479.547 636.827 482.667 628.307 485.092 619.605C476.527 619.613 467.954 619.498 459.389 619.651ZM493.84 619.643C491.155 628.3 488.021 636.811 485.389 645.491C493.931 645.399 502.489 645.605 511.031 645.384C514.379 637.078 516.713 628.254 519.832 619.803C511.199 619.3 502.496 619.62 493.84 619.643ZM527.474 622.336C525.133 630.069 522.097 637.604 520.061 645.422C528.657 645.46 537.267 645.643 545.863 645.331C548.494 636.712 551.598 628.246 554.275 619.643C545.962 619.567 537.649 619.514 529.343 619.62C527.932 619.529 527.978 621.428 527.474 622.336ZM563 619.567C560.133 628.201 557.273 636.842 554.374 645.468C563.023 645.468 571.672 645.506 580.321 645.453C583.166 636.811 586.11 628.201 588.894 619.544C580.26 619.59 571.626 619.552 563 619.567ZM448.666 653.171C447.979 654.628 447.369 656.123 446.858 657.663C465.163 658.106 483.49 657.701 501.802 657.839C525.979 657.869 550.149 657.808 574.326 657.869C575.455 657.732 576.79 658.045 577.789 657.358C578.582 656.008 579.04 654.506 579.581 653.057C558.775 653.003 537.969 653.041 517.163 653.041C494.328 653.133 471.493 652.835 448.666 653.171ZM443.991 667.365C487.624 667.479 531.265 667.525 574.898 667.311C575.516 665.839 576.103 664.36 576.637 662.865C574.097 662.514 571.542 662.628 568.995 662.636C528.55 662.659 488.097 662.644 447.652 662.651C444.944 662.293 444.837 665.58 443.991 667.365Z" fill="#D8D7F2"/>
<path d="M467.581 587.534C476.138 587.534 484.703 587.458 493.268 587.588C490.583 596.183 487.563 604.664 484.84 613.244C476.26 613.588 467.642 613.496 459.061 613.343C461.815 604.717 464.408 596.023 467.581 587.534Z" fill="#F8F8FF"/>
<path d="M502 587.58C510.596 587.443 519.191 587.519 527.787 587.565C525.156 596.198 522.143 604.717 519.336 613.305C510.718 613.527 502.061 613.595 493.443 613.282C496.25 604.702 499.148 596.145 502 587.58Z" fill="#F8F8FF"/>
<path d="M571.268 587.549C579.833 587.557 588.405 587.374 596.978 587.649C594.377 595.558 591.67 603.436 589.122 611.36C588.756 612.177 588.619 613.687 587.338 613.42C579.131 613.427 570.917 613.511 562.71 613.366C563.404 609.934 564.793 606.708 565.822 603.383C567.691 598.12 569.193 592.736 571.268 587.549Z" fill="#F8F8FF"/>
<path d="M459.389 619.651C467.954 619.498 476.527 619.613 485.092 619.605C482.666 628.307 479.547 636.827 476.664 645.384C468.076 645.491 459.473 645.658 450.893 645.323C453.654 636.743 456.544 628.208 459.389 619.651Z" fill="#F8F8FF"/>
<path d="M527.474 622.336C527.978 621.428 527.932 619.529 529.343 619.62C537.649 619.514 545.962 619.567 554.275 619.643C551.598 628.246 548.494 636.712 545.863 645.33C537.267 645.643 528.656 645.46 520.061 645.422C522.097 637.604 525.133 630.069 527.474 622.336Z" fill="#F8F8FF"/>
<path d="M448.666 653.171C471.493 652.835 494.328 653.133 517.163 653.041C537.969 653.041 558.775 653.003 579.581 653.057C579.04 654.506 578.582 656.008 577.789 657.358C576.79 658.045 575.455 657.732 574.326 657.869C550.149 657.808 525.979 657.869 501.802 657.839C483.49 657.701 465.163 658.106 446.858 657.663C447.369 656.123 447.979 654.628 448.666 653.171Z" fill="#F8F8FF"/>
<path d="M443.991 667.365C444.837 665.58 444.944 662.293 447.651 662.651C488.097 662.644 528.55 662.659 568.995 662.636C571.542 662.628 574.097 662.514 576.637 662.865C576.103 664.36 575.516 665.839 574.898 667.311C531.265 667.525 487.624 667.479 443.991 667.365Z" fill="#F8F8FF"/>
<path d="M536.489 587.58C545.13 587.412 553.772 587.557 562.421 587.504C559.667 596.191 556.761 604.824 553.81 613.45C545.192 613.328 536.573 613.526 527.955 613.343C530.83 604.771 533.728 596.198 536.489 587.58Z" fill="#FC757E"/>
<path d="M493.84 619.643C502.496 619.62 511.199 619.3 519.832 619.803C516.713 628.254 514.379 637.078 511.031 645.384C502.489 645.605 493.931 645.399 485.389 645.491C488.02 636.811 491.155 628.3 493.84 619.643Z" fill="#FC757E"/>
<path d="M563 619.567C571.626 619.552 580.26 619.59 588.893 619.544C586.11 628.201 583.166 636.811 580.321 645.453C571.672 645.506 563.023 645.468 554.374 645.468C557.272 636.842 560.133 628.201 563 619.567Z" fill="#FC757E"/>
<path d="M608.533 594.208L609.578 594.192C611.66 594.162 613.749 594.162 615.847 594.177C616.388 594.177 617.471 594.177 618.005 594.177C630.841 594.192 643.677 594.124 656.513 594.208C656.483 598.021 656.49 601.835 656.498 605.648C654.652 605.663 652.822 605.671 650.991 605.663C648.513 605.617 646.034 605.595 643.563 605.648C632.351 605.831 621.14 605.595 609.928 605.785C609.463 601.926 608.967 598.067 608.533 594.208Z" fill="#14AFAF"/>
<path d="M609.928 605.785C621.14 605.595 632.351 605.831 643.563 605.648C643.502 617.622 643.563 629.589 643.525 641.563C643.456 646.543 643.967 651.646 642.617 656.527C640.238 664.962 633.686 671.979 625.655 675.38C623.436 676.372 621.041 676.86 618.799 677.775C615.656 653.804 612.918 629.779 609.928 605.785Z" fill="#0DB7BD"/>
<path d="M643.563 605.648C646.034 605.595 648.513 605.617 650.991 605.663C651.014 620.185 650.984 634.706 651.007 649.228C651.052 656.946 647.842 664.604 642.335 670.003C637.698 674.58 631.497 677.295 625.091 678.179H618.31L618.798 677.775C621.041 676.86 623.436 676.372 625.655 675.38C633.686 671.979 640.238 664.962 642.617 656.527C643.967 651.646 643.456 646.543 643.525 641.563C643.563 629.589 643.502 617.622 643.563 605.648Z" fill="#1FDBDB"/>
</g>
<defs>
<clipPath id="clip0_24_260">
<rect width="713.875" height="732.18" fill="white" transform="translate(0 -54)"/>
</clipPath>
</defs>
</svg>
