<svg width="708" height="463" viewBox="0 0 708 463" fill="none" xmlns="http://www.w3.org/2000/svg">
<g clip-path="url(#clip0_68_204)">
<path d="M691.735 13.1818C692.17 12.5674 692.632 11.8386 692.682 10.5624C692.739 9.08971 693.215 8.92322 693.557 8.44032C694.272 7.43254 695.109 8.51898 694.424 10.9328C693.416 14.4785 692.443 18.0849 691.427 21.7837C692.718 25.6321 694.644 19.5946 696.606 20.8581C696.711 22.5326 695.732 24.079 695.215 24.4536C692.428 26.4727 690.753 31.9458 688.932 36.9632C687.285 41.5004 687.444 58.2354 685.882 69.9524C681.474 102.998 682.251 107.535 679.245 124.925C677.251 136.462 677.297 141.903 676.417 156.894C675.661 169.772 676.743 174.583 675.284 181.614C673.859 188.474 676.503 196.45 676.66 202.645C676.785 207.548 677.58 212.195 677.483 217.16C677.43 219.868 677.875 221.795 678.878 222.966C681.293 225.789 679.048 228.611 680.429 230.766C681.861 233.002 682.672 232.485 685.467 242.42C687.176 248.493 685.027 249.092 686.284 256.435C692.585 293.244 692.134 290.717 692.497 291.62C693.785 294.83 691.644 296.695 693.181 303.481C697.088 320.734 696.622 348.394 696.657 351.986C696.683 354.652 696.908 357.141 697.813 358.368C699.807 361.074 701.106 370.422 702.663 372.301C702.851 372.527 703.009 373.001 703.133 373.444C705.392 381.506 709.072 380.854 707.703 388.536C707.038 392.263 706.358 389.706 705.9 391.287C705.047 394.235 703.796 393.115 702.698 393.102C701.63 393.09 700.739 391.751 700.052 389.614C698.201 383.848 695.889 383.006 692.039 380.674C690.184 379.551 689.579 375.421 690.463 371.177C691.559 365.921 690.326 366.686 690.767 363.853C691.816 357.113 690.648 350.985 689.947 344.736C689.862 343.983 689.689 343.133 689.45 342.671C688.016 339.9 687.419 335.657 686.41 332.148C684.593 325.829 684.472 310.45 684.19 307.496C683.924 304.703 683.025 303.734 682.386 302.016C681.532 299.721 669.976 316.808 665.021 299.011C663.65 294.086 659.696 285.109 659.106 285.203C657.579 285.446 656.04 284.657 654.518 285.73C653.629 286.356 652.654 285.815 651.772 286.824C647.708 291.478 643.968 300.458 643.204 302.464C642.529 304.235 642.276 305.777 642.553 308.27C643.105 313.231 643.208 318.41 643.374 323.524C643.512 327.759 643.227 331.956 642.356 335.659C641.96 337.343 642.005 339.147 641.94 340.782C641.793 344.47 641.09 348.102 641.694 351.966C642.209 355.251 640.067 359.779 642.926 364.649C644.18 366.785 644.854 370.195 645.903 372.787C646.219 373.569 646.191 375.174 645.749 376.151C643.758 380.559 641.811 385.151 639.074 386.619C636.199 388.162 637.146 392.362 634.949 394.673C626.339 403.728 626.065 395.216 626.663 393.55C627.461 391.327 628.614 386.227 630.414 386.608C630.971 386.725 631.555 386.143 631.45 384.7C631.155 380.645 632.165 377.682 632.791 374.554C633.319 371.916 633.47 368.542 634.752 366.88C635.208 366.289 635.093 364.453 635.154 363.087C635.457 356.282 634.703 349.861 634.075 343.393C632.897 331.266 633.594 321.309 633.518 310.093C633.496 306.719 632.856 303.807 632.738 300.551C632.701 299.545 632.247 299.321 631.831 299.155C631.083 298.858 630.358 298.199 629.61 297.898C628.741 297.549 628.074 296.58 627.602 294.583C628.229 293.239 628.481 291.284 628.667 289.34C629.188 283.895 629.978 283.132 630.389 278.81C631.194 270.343 633.392 266.275 634.046 262.606C634.21 261.685 634.395 260.787 634.716 260.346C636.986 257.236 637.562 251.345 638.604 246.154C640.407 237.173 642.004 233.359 642.154 230.78C642.309 228.098 643.679 226 644.882 226.348C646.166 226.721 645.535 221.691 646.86 218.405C647.356 217.176 646.248 213.785 646.407 211.437C646.878 204.48 643.353 205.133 644.252 200.165C644.32 199.788 644.012 198.983 644.246 198.096C645.064 200.567 645.867 202.992 646.668 205.413C647.197 204.572 647.108 203.478 647.015 202.689C645.878 193.068 648.587 186.541 645.516 173.24C643.156 163.013 646.141 155.204 642.159 151.58C638.734 148.464 638.055 151.433 637.182 147.113C636.44 143.442 632.421 139.409 629.799 136.282C627.505 133.547 628.733 133.37 623.406 131.029C614.279 127.021 610.644 114.996 608.277 122.439C607.193 125.847 605.723 127.901 604.162 129.626C599.631 134.636 604.665 140.707 604.339 175.078C604.281 181.246 590.528 188.162 588.881 187.997C587.772 187.886 586.898 196.069 586.874 198.828C586.84 202.667 586.378 206.359 586.454 210.203C586.549 215.007 585.573 218.71 586.865 224.51C587.309 226.505 587.534 228.486 587.467 230.729C587.361 234.289 587.023 227.418 591.105 260.26C592.993 275.446 591.768 285.414 591.014 296.352C588.057 339.244 590.589 320.078 594.644 348.991C594.865 350.561 594.567 352.26 594.874 353.827C595.577 357.422 596.15 361.178 597.564 363.621C599.402 366.8 598.304 368.824 599.143 377.113C599.611 381.733 599.428 386.411 599.304 390.993C599.228 393.825 598.526 396.533 597.665 398.753C597.153 400.072 596.555 399.654 595.973 399.794C595.419 399.928 594.906 401.38 594.299 399.9C593.666 398.357 593.385 396.583 593.435 394.407C593.512 391.015 593.288 387.624 593.718 384.22C594.211 380.314 593.206 377.733 593.137 376.795C592.893 373.462 592.469 370.443 591.611 367.632C591.094 365.935 591.033 363.355 590.795 361.153C590.248 356.085 589.304 352.486 588.858 352.07C587.715 351.002 587.098 348.653 586.369 346.423C583.149 336.575 579.923 329.988 579.858 317.496C579.83 312.262 579.2 289.506 579.2 289.506C579.226 284.605 575.168 277.879 574.795 317.865C574.751 322.656 574.183 327.405 574.031 332.208C573.809 339.223 574.998 344.699 575.178 347.203C575.84 356.391 578.583 354.257 576.858 360.945C574.652 369.502 575.378 372.747 575.212 377.126C574.704 390.561 569.603 394.198 568.973 385.532C568.151 374.223 570.665 376.738 570.927 364.257C571.309 346.146 567.608 354.268 564.757 325.414C564.658 324.413 565.102 322.143 564.954 320.651C564.322 314.277 564.885 307.667 564.311 301.295C563.676 294.255 563.992 287.112 564.026 280.03C564.055 273.975 565.623 258.378 565.648 254.867C565.666 252.292 566.474 250.093 566.295 247.4C565.756 239.314 569.517 233.208 567.29 228.805C566.948 228.129 566.847 227.134 567.041 226.218C568.861 217.619 563.199 208.975 565.032 197.534C565.411 195.168 565.358 193.27 564.843 191.006C562.884 182.394 563.272 160.972 563.436 160.118C564.186 156.225 562.187 157.124 563.462 154.603C563.964 153.613 563.36 148.763 563.894 145.485C564.066 144.423 563.572 143.288 563.42 142.165C563.251 140.913 564.362 141.705 564.083 139.825C563.919 138.725 564.11 137.291 563.938 136.207C563.664 134.479 563.679 132.753 563.645 130.986C563.341 115.17 564.298 111.297 562.89 108.704C562.914 108.724 562.752 109.038 562.565 109.354C560.524 112.81 560.09 107.632 559.78 107.189C559.116 106.243 559.145 105.534 559.787 104.565C560.204 103.936 560.512 102.871 560.92 102.197C562.202 100.082 561.133 94.5457 564.452 94.5594C564.86 94.5612 565.165 94.0744 565.297 93.0063C565.49 91.4483 565.696 89.917 565.662 88.2391C565.648 87.5159 565.88 86.9001 566.144 86.8524C566.275 86.8288 566.557 87.5879 566.55 87.9671C566.503 90.4663 567.06 91.3626 567.945 91.4828C568.702 91.5859 568.728 93.6141 569.301 94.442C567.35 104.628 566.06 98.9764 567.637 127.481C567.904 132.303 568.235 133.019 570.004 132.587C571.128 132.313 572.29 133.257 573.386 131.922C573.962 131.22 577.954 136.996 578.489 137.873C580.916 141.845 579.591 152.389 580.704 155.324C580.81 155.606 580.803 156.016 580.715 156.444C580.161 159.148 580.513 162.654 579.393 164.945C578.905 165.944 579.192 167.831 579.205 169.285C579.214 170.271 578.387 171.422 579.268 172.303C581.236 174.272 580.738 174.147 582.172 171.898C582.686 171.092 583.219 170.534 583.858 170.599C585.272 170.744 586.688 169.328 588.104 170.615C589.901 169.008 591.819 170.475 593.64 169.241C594.209 168.855 594.851 168.844 595.443 169.015C596.513 169.324 597.482 167.994 598.53 168.078C599.215 168.132 599.362 164.061 599.391 162.364C599.461 158.288 599.919 144.142 598.963 136.785C597.424 124.955 599.182 114.677 600.619 112.955C601.112 112.365 601.853 112.747 602.446 113.105C602.819 113.33 602.69 114.469 602.58 115.245C602.392 116.556 602.84 116.142 603.016 116.144C603.712 116.15 604.285 115.318 604.712 114.035C605.313 112.23 607.483 108.042 609.436 109.407C610.719 110.303 612.139 109.886 613.504 110.263C615.186 110.729 616.832 111.608 618.462 112.493C619.481 113.047 620.502 112.776 621.531 113.444C626.357 116.581 628.492 116.476 630.838 116.992C632.583 117.376 634.215 118.925 635.918 119.733C638.803 121.103 639.64 119.471 641.106 121.124C641.854 121.967 642.589 119.959 643.441 121.422C644.019 122.416 644.854 120.591 645.554 120.595C646.877 120.603 648.128 119.46 649.44 119.49C649.82 119.498 650.229 119.523 650.576 119.205C652.421 117.513 649.746 115.976 650.424 103.325C649.728 103.555 649.408 105.206 648.726 104.904C648.777 103.153 649.379 102.029 649.822 101.747C650.66 101.213 650.297 100.419 650.441 97.5425C650.058 96.9884 649.657 97.3471 649.285 97.1563C648.995 97.0074 648.651 96.3365 648.765 95.8459C649.158 94.1633 648.501 93.4127 648.271 92.6285C647.026 88.3837 648.442 89.0221 648.312 87.0189C647.97 81.767 648.112 84.0817 652.078 75.4738C654.591 70.018 657.232 72.9277 658.236 70.5697C658.344 70.3164 658.628 70.0483 658.66 70.1432C659.215 71.7923 660.145 70.9146 660.783 72.2692C662.53 75.9803 666.257 82.8143 665.802 94.473C665.626 98.9771 666.657 111.277 664.239 111.658C664.339 112.201 664.379 112.628 664.423 112.63C665.064 112.662 665.614 114.923 665.968 114.329C666.817 112.902 667.747 111.683 668.52 110.037C670.96 104.844 672.991 98.8089 674.365 91.4786C675.537 85.2249 677.33 83.4743 677.868 76.6699C679.044 61.8009 680.32 58.9007 681.705 46.2472C682.196 41.7632 683.986 36.1981 683.14 29.8699C682.628 26.0459 682.265 22.1622 682.76 18.02C683.079 15.3586 682.352 11.1031 683.172 10.7525C684.49 10.1888 684.425 16.5371 684.476 19.2006C686.208 17.6853 685.59 14.2609 687.636 5.83146C688.035 4.1884 688.568 3.61697 689.389 4.52315C688.999 6.86816 688.625 9.21282 688.216 11.519C687.76 14.0884 688.624 14.9544 689.067 12.3674C689.358 10.6725 691.025 4.64591 691.075 4.55031C691.972 2.84905 692.697 4.31433 692.266 6.57504C691.319 11.5342 690.689 12.4196 691.38 13.184C691.266 12.6474 691.555 14.7307 691.756 13.075L691.735 13.1818ZM571.501 135.141C570.2 135.251 568.131 133.208 567.924 135.391C567.218 142.856 570.15 139.327 571.501 135.141Z" fill="black"/>
<path d="M431.583 113.692C431.962 113.704 432.316 113.8 432.673 113.127C434.894 108.925 436.455 103.843 436.929 96.6942C438.043 79.9084 440.264 76.6396 440.924 64.3798C441.468 54.2657 446.449 33.9906 445.055 27.259C443.919 21.7725 444.296 15.8539 444.161 9.70984C445.382 10.6926 445.613 12.7759 445.805 14.9018C445.864 15.5632 445.837 16.2701 446.216 16.3812C447.01 16.6133 447.168 14.2348 447.138 13.6577C446.934 9.79415 447.584 6.10591 447.496 2.26493C447.477 1.42365 447.328 0.157671 447.923 0.0451468C448.626 -0.087483 448.474 1.35487 448.543 2.35277C448.826 6.44101 448.747 7.84456 449.469 7.89888C449.753 7.9204 449.754 7.22938 449.821 6.73872C450.618 0.951334 450.541 0.114989 451.259 0.00493458C451.874 -0.0895995 451.695 1.2307 451.825 2.01943C451.907 2.51326 452.053 2.94149 452.17 3.39934C452.034 3.26989 451.879 3.06142 451.937 3.74467C452.002 3.59088 452.067 3.43673 452.131 3.28294C453.044 4.26003 452.797 6.20538 452.684 7.87384C452.54 9.99486 452.372 12.166 452.035 14.124C451.803 15.4676 452.183 16.0863 452.18 17.1389C453.464 15.6133 453.351 11.2206 454.074 11.87C455.092 12.7854 453.408 19.0253 453.303 19.3805C451.924 24.0508 452.539 26.3764 450.32 31.8322C448.24 36.9452 449.007 39.5682 446.793 62.5907C446.748 63.0602 445.545 75.4632 445.364 76.2664C443.652 83.8926 444.663 90.4818 443.529 106.631C443.313 109.706 444.217 111.013 441.87 127.595C441.817 127.965 438.437 148.61 438.532 162.01C438.556 165.423 438.487 168.752 438.034 172.07C437.604 175.221 437.939 178.607 437.874 181.885C437.863 182.487 437.789 187.994 438.034 188.353C440.062 191.319 437.342 195.032 439.201 197.964C441.629 201.793 440.801 207.491 440.857 211.205C440.886 213.149 440.546 214.575 440.035 215.939C439.759 216.676 439.131 216.589 439.198 218.138C439.314 220.819 438.853 221.098 440.228 226.479C440.948 229.296 440.879 232.505 441.069 235.479C441.561 243.192 444.464 251.036 444.882 282.69C444.987 290.603 445.838 298.237 448.07 304.489C449.088 307.338 450.074 315.219 450.992 316.95C451.255 317.446 451.112 318.509 451.122 319.32C451.151 321.666 452.284 319.963 451.889 321.474C450.721 325.941 453.065 329.296 453.087 335.635C453.096 338.016 453.283 340.192 453.683 342.314C453.961 343.786 454.903 363.46 458.008 360.386C458.524 359.876 458.858 360.567 458.56 362.173C457.551 367.619 462.885 378.48 463.78 380.803C460.085 387.549 455.673 382.129 452.513 382.108C447.282 382.073 453.896 363.54 450.569 356.635C450.28 356.036 450.016 355.277 449.83 354.466C448.33 347.95 446.651 341.737 444.913 335.601C441.041 321.925 441.76 312.547 438.993 305.369C434.962 294.909 436.509 288.002 434.134 288.65C433.338 288.866 433.098 287.761 432.915 286.117C432.433 281.795 431.504 277.85 431.179 273.378C431.114 272.49 430.892 271.599 430.568 270.994C426.835 264.023 426.42 256.43 424.606 258.507C421.629 261.913 422.376 264.01 417.618 285.397C417.265 286.986 417.573 288.956 417.06 290.023C416.112 291.995 415.769 299.677 413.558 304.973C411.532 309.825 412.761 317.19 409.789 330.352C408.713 335.119 409.823 336.464 413.149 339.408C415.584 341.564 415.597 333.803 416.829 337.77C417.666 340.465 418.916 341.256 420.114 342.016C423.578 344.214 422.21 348.969 421.701 354.396C421.368 357.948 420.713 361.243 420.515 364.933C420.397 367.128 419.949 369.221 419.223 370.901C417.996 373.744 416.556 381.924 414.948 380.513C414.204 379.86 414.122 377.901 414.037 376.065C413.922 373.614 413.422 368.981 413.422 368.981C413.958 366.58 413.417 364.236 413.4 361.872C413.385 359.795 413.398 357.744 412.612 356.333C411.951 355.146 413.307 351.691 410.883 349.989C409.289 348.871 407.649 348.641 406.026 348.078C404.111 347.414 403.709 355.596 401.94 360.372C401.663 361.122 401.801 362.152 401.966 363.088C402.743 367.478 402.783 372.285 403.222 376.863C403.366 378.366 403.175 378.752 402.707 379.22C395.202 386.719 393.527 384.447 389.812 384.956C389.211 385.038 388.487 384.219 388.109 386.376C387.197 391.573 390.019 391.49 391.653 408.321C391.778 409.603 391.739 410.37 391.415 411.197C389.798 415.319 389.367 416.032 389.135 417.619C388.535 421.711 387.399 425.08 386.633 428.934C385.533 434.47 383.693 430.893 383.216 430.635C382.505 430.25 382.762 428.717 382.548 427.749C381.546 423.227 383.77 414.74 383.639 409.211C383.538 404.997 385.617 405.312 384.868 398.235C382.959 380.191 379.603 360.966 379.64 350.743C379.658 345.69 379.274 340.744 379.064 335.751C378.488 322.047 377.716 287.639 377.716 287.639C377.267 281.896 378.43 278.624 378.319 271.25C378.225 264.944 379.45 269.361 378.448 258.256C377.618 249.053 379.869 244.421 380.178 234.167C380.578 220.934 380.213 210.981 379.998 197.22C379.941 193.614 379.483 190.123 378.364 186.505C378.828 183.936 377.895 182.541 377.533 180.737C376.612 176.149 376.005 171.137 374.658 167.112C374.264 165.934 374.476 164.439 374.296 163.214C372.513 151.114 371.909 149.107 371.909 149.107C371.767 145.872 370.79 143.44 370.582 140.296C370.209 134.651 369.163 129.561 368.465 124.185C366.721 110.759 365.391 99.0544 365.391 99.0544C364.594 93.9069 364.058 101.944 362.712 97.4583C362.096 95.4064 361.595 93.1658 360.91 91.2063C360.433 89.8412 360.628 88.2786 361.277 87.141C368.845 73.8851 369.053 72.7778 369.754 75.629C371.593 83.1057 372.405 84.3336 371.534 85.5519C369.715 88.098 371.656 91.0829 369.873 94.4706C368.51 97.0583 368.397 98.1242 369.024 102.147C370.09 108.988 371.063 115.987 372.712 122.11C374.062 127.121 375.199 132.264 375.654 138.226C375.755 139.553 376.771 139.626 376.596 141.183C376.071 145.847 378.517 148.892 378.83 153.711C379.343 161.602 381.404 163.976 382.4 166.833C382.902 166.159 382.924 165.237 382.764 164.273C382.348 161.751 382.263 158.978 381.71 156.527C380.804 152.505 381.764 150.197 380.836 149.956C379.406 149.585 382.805 148.994 381.627 141.725C381.422 140.455 381.504 138.982 382.093 138.131C382.519 137.515 383.27 137.728 383.128 135.624C383.122 135.545 383.32 135.237 383.373 135.3C384.343 136.437 384.985 134.675 385.745 133.785C386.204 133.248 387.615 133.704 388.37 133.501C390.715 132.871 392.414 134.897 393.344 140.544C393.931 144.113 397.276 148.595 396.084 161.475C395.92 163.242 395.907 164.996 395.835 166.76C395.764 168.513 395.93 169.98 396.521 171.094C397.609 173.142 396.8 175.808 399.931 180.521C401.003 182.135 404.313 188.063 404.792 192.761C406.345 207.994 404.806 216.768 404.223 231.448C404.043 235.957 403.388 240.185 403.326 244.762C403.242 251.009 400.079 252.827 402.243 262.718C402.411 263.486 402.592 264.424 402.442 265.041C401.345 269.559 401.699 274.766 401.265 279.586C400.767 285.114 400.073 290.465 399.217 295.747C398.264 301.622 396.187 321.857 396.172 322.21C395.927 327.987 395.99 328.16 398.274 328.093C401.181 328.009 401.33 328.706 401.774 324.186C403.184 309.828 405.535 306.709 405.816 299.024C405.929 295.916 407.398 291.33 406.564 284.781C406.261 282.404 407.016 278.155 407.08 271.897C407.146 265.428 408.318 250.029 409.865 239.866C410.608 234.983 408.349 233.156 410.297 225.64C411.998 219.077 414.009 220.683 414.038 205.684C414.043 203.177 412.484 205.291 411.928 203.967C411.623 203.24 411.984 202.079 411.892 201.297C411.245 195.783 411.889 190.236 411.788 184.708C411.717 180.8 412.519 177.126 412.861 173.301C413.237 169.083 413.204 164.711 413.689 160.544C413.703 160.422 413.699 160.255 413.677 160.143C412.992 156.769 413.384 153.219 413.395 149.729C413.458 128.513 409.538 122.906 408.092 100.784C406.609 78.0696 406.564 79.1532 403.927 66.5407C400.532 50.302 400.313 42.6091 400.143 40.8204C399.218 31.1042 398.061 35.9215 397.153 27.1394C396.286 18.7572 394.768 15.0186 395.462 13.657C396.153 12.2993 395.965 16.3946 397.019 16.3117C397.486 13.8429 396.666 11.6506 396.741 9.28056C396.748 9.04916 396.623 8.81001 396.598 8.55145C396.367 6.09356 396.514 5.77963 397.658 6.35071C397.636 4.80466 397.279 3.2392 397.713 1.68821C397.857 1.78486 398.023 1.82824 398.162 2.0025C398.515 2.44518 398.739 6.24312 399.262 2.14641C399.407 1.01059 399.85 1.99297 400.001 2.60744C401.051 6.87241 400.405 12.2633 401.395 14.3413C401.968 13.7646 401.826 11.3977 402.698 11.3529C403.087 15.9847 402.815 20.771 402.714 25.4723C402.543 33.4492 403.191 36.3064 409.284 60.1205C411.969 70.6169 411.375 75.4548 412.537 80.6725C414.57 89.7954 414.319 95.3902 416.673 102.198C417.678 105.103 419.741 112.217 420.647 112.09C421.298 111.998 421.598 111.759 420.955 107.737C419.587 99.1722 421.054 98.0265 420.63 94.6332C420.004 89.6292 420.344 84.7156 420.69 79.7314C420.974 75.6477 421.991 73.3147 423.471 72.702C424.196 72.4022 424.483 70.5654 425.299 70.7651C428.716 71.6018 434.546 81.8626 433.981 90.5072C433.304 100.879 435.25 103.881 432.313 108.251C431.453 109.529 431.229 111.29 431.609 113.769C431.504 113.575 431.407 113.583 431.376 113.837C431.362 113.956 431.427 114.134 431.456 114.285C431.498 114.088 431.54 113.89 431.583 113.692ZM390.227 364.189C391.561 363.662 393.054 366.511 394.058 365.33C394.446 364.874 394.684 363.828 394.032 362.99C393.604 362.439 393.05 363.114 392.598 361.96C393.272 360.46 395.992 361.983 397.025 357.846C397.788 354.794 398.133 351.299 398.511 347.87C398.67 346.431 398.417 345.517 397.765 345.39C394.413 344.735 387.799 344.598 387.948 328.123C388.005 321.725 387.385 315.337 387.896 308.915C387.961 308.094 388.024 307.095 387.717 306.061C387.245 308.237 387.045 310.518 386.93 312.734C385.527 339.689 385.667 344.848 386.503 350.147C387.289 355.127 387.648 369.614 387.63 371.784C387.6 375.635 388.33 376.468 389.797 375.097C391.278 373.712 392.246 370.963 393.128 368.099C392.464 365.296 390.949 367.127 390.227 364.189ZM383.437 140.332C384.808 139.859 384.808 139.859 385.079 137.554C384.442 138.008 384.146 139.257 383.437 140.332ZM382.535 140.124C382.269 141.452 382.314 142.36 382.788 143.023C382.928 142.082 383.004 141.199 382.535 140.124ZM399.162 231.876C399.021 230.324 398.489 230.744 398.496 231.603C398.5 232.163 398.559 232.687 398.792 232.83C399.102 233.021 399.093 232.324 399.162 231.876Z" fill="black"/>
<path d="M147.976 197.856C147.675 196.768 147.332 195.879 147.424 194.238C147.518 192.556 147.325 190.773 147.238 188.508C146.182 190.932 145.012 192.336 144.697 195.726C144.559 197.207 144.218 198.136 143.554 198.061C142.817 190.892 145.87 193.725 143.875 189.442C143.596 188.843 143.39 187.965 143.225 187.124C143.038 186.168 143.548 185.814 143.602 185.072C143.733 183.283 144.439 183.035 144.859 182.032C145.434 180.659 145.295 178.381 144.518 178.105C143.669 177.805 143.01 176.668 142.243 175.985C142.564 173.857 143.375 175.331 143.886 174.311C143.224 167.064 138.22 158.824 136.019 145.841C134.633 137.662 133.516 135.566 131.181 130.306C130.97 129.833 130.754 129.583 130.776 128.802C130.802 127.879 131.067 127.722 131.353 127.766C132.696 127.972 131.537 123.197 132.698 124.822C133.74 126.282 133.373 122.598 133.287 122.244C133.085 121.421 133.284 121.005 133.511 120.599C134.008 119.714 134.367 122.43 134.8 122.464C135.665 121.153 135.043 117.734 136.238 116.655C136.502 117.818 136.203 119.63 136.885 120.546C137.395 119.221 136.869 116.873 137.56 115.662C137.984 115.861 137.963 117.054 138.196 117.739C138.614 118.973 138.577 119.961 138.196 121.359C137.778 122.892 137.595 124.817 137.298 126.559C136.831 129.297 136.833 131.792 137.734 134.095C137.734 134.095 140.689 143.785 143.912 152.653C146.375 159.43 145.722 161.084 147.521 165.113C151.327 173.637 150.821 175.101 153.184 176.674C153.237 175.183 152.601 175.436 152.489 174.232C152.917 173.924 153.512 173.905 153.432 171.961C153.397 171.125 153.609 170.12 154.355 170.312C155.207 170.532 156.252 165.643 156.012 163.509C155.662 160.382 155.945 158.887 157.119 157.673C157.056 156.865 156.7 156.855 156.535 156.343C156.371 155.832 155.872 155.888 156.141 154.598C156.314 153.765 156.475 153.176 156.854 153.328C158.65 154.053 162.257 150.011 162.645 149.82C163.795 149.253 164.93 149.436 166.063 149.138C169.885 148.131 172.729 159.973 172.773 169.194C172.798 174.242 173.552 175.411 172.922 178.834C172.209 182.709 171.407 177.838 170.975 182.96C170.716 186.038 169.837 192.025 171.119 192.03C173.968 192.042 172.077 195.107 176.165 196.114C182.193 197.6 183.857 205.308 185.54 207.986C198.002 227.816 194.199 219.21 199.22 227.777C200.477 229.923 201.969 230.908 203.282 232.854C204.314 234.383 206.205 231.045 206.225 227.93C206.26 222.447 205.932 216.92 206.25 211.491C206.56 206.201 206.36 200.844 206.763 195.598C207.126 190.876 205.844 182.022 205.859 176.571C205.865 174.438 205.177 173.406 204.465 173.17C203.848 172.965 203.339 172.312 202.785 171.593C203.413 171.493 204.041 171.394 204.7 171.289C204.512 170.368 204.219 170.583 203.977 170.585C202.637 170.596 204.536 168.841 203.382 168.278C203.01 168.096 202.607 168.608 202.256 167.963C202.198 167.489 202.437 167.345 202.448 167.089C202.591 164.015 202.584 164.017 203.729 163.893C204.055 163.858 204.394 164.005 204.774 163.431C204.243 161.577 203.292 163.27 202.749 161.895C203.219 161.261 203.724 161.6 204.21 161.564C205.727 161.451 205.641 161.483 205.584 157.596C205.55 155.277 204.907 155.962 204.326 155.437C204.878 154.441 205.73 154.246 205.521 151.906C205.368 150.189 205.591 148.364 205.324 146.62C203.467 134.496 202.871 122.119 202.563 118.348C201.657 107.246 201.4 106.733 199.298 103.353C195.51 97.2633 195.12 97.0738 195.366 96.0978C195.771 94.4858 196.192 96.7123 198.229 98.937C197.726 96.4216 196.914 95.5525 196.267 94.2456C195.63 92.9598 196.224 91.7595 196.732 92.5542C197.101 93.132 197.431 93.8639 197.788 94.5496C198.343 92.0858 197.032 91.5281 197.006 89.7192C197.472 88.3506 197.73 89.4818 199.733 93.8826C200.044 94.5673 200.05 94.5507 200.909 94.2854C200.614 91.7172 199.606 89.9072 199.602 86.6155C201.271 87.4853 201.136 91.5517 202.707 94.6985C203.529 96.3451 204.008 95.9214 204.249 93.4036C204.409 91.7471 204.472 89.9115 205.387 88.7213C206.366 103.225 203.533 101.448 207.182 124.943C208.358 132.516 209.005 140.482 209.868 148.288C209.896 148.54 209.97 148.76 210.056 149.152C212.16 148.155 214.331 148.423 216.475 148.19C221.952 147.596 221.747 154.196 223.715 151.836C224.222 151.228 224.566 153.144 225.237 152.702C225.876 152.281 226.414 151.542 226.997 150.994C227.619 150.408 227.778 152.966 228.524 153.465C231.247 155.286 233.01 160.389 234.621 165.83C236.036 170.608 235.201 180.673 232.864 184.338C232.537 184.85 232.143 185.221 231.952 186.032C231.046 189.875 229.639 190.799 228.001 190.347C226.818 190.02 226.117 191.781 225.108 193.886C226.243 194.807 227.155 195.024 227.998 195.649C231.45 198.206 233.54 207.343 237.012 211.463C237.916 212.536 238.856 215.56 240.797 217.857C242.185 219.501 243.39 221.906 244.511 224.494C245.079 225.805 245.722 226.842 246.291 228.121C246.687 229.01 247.046 229.208 247.619 228.773C248.81 227.868 249.353 229.132 249.212 232.299C249.088 235.091 249.548 237.829 249.265 240.619C249.205 241.2 249.44 241.561 249.583 241.968C250.548 244.704 248.515 248.161 248.361 245.21C248.211 242.343 247.042 240.555 247.188 237.336C247.243 236.11 246.669 235.147 246.081 234.706C241.613 231.357 239.728 224.118 233.376 221.639C230.423 220.486 230.232 217.358 228.825 217.539C228.19 217.621 227.874 218.116 227.691 219.804C226.887 227.231 226.555 234.786 226.746 242.422C227.02 253.388 227.572 249.719 228.71 258.144C229.333 262.754 230.25 267.073 230.796 271.774C231.025 273.747 231.058 275.766 231.3 277.741C233.558 296.178 237.336 287.824 236.368 299.834C236.071 303.519 235.605 306.654 233.985 307.866C235.497 317.586 237.017 325.222 236.051 333.815C235.768 336.334 236.562 339.806 234.636 345.616C233.209 349.924 230.75 350.079 229.181 346.13C224.254 333.732 227.082 340.299 221.693 307.212C221.636 306.859 220.336 298.072 219.671 298.499C218.326 299.364 220.441 302.411 218.46 308.519C217.951 317.59 217.439 326.697 217.897 335.846C218.125 340.406 217.351 346.351 218.017 352.984C218.303 355.833 219.319 363.395 218.273 376.366C218.018 379.522 218.186 382.656 218.117 385.794C218.04 389.284 222.489 388.483 221.356 396.961C219.693 409.402 224.267 412.226 222.811 423.691C222.338 427.414 221.333 429.913 219.872 430.249C218.473 430.571 217.686 428.206 216.94 425.797C216.59 424.665 215.116 412.085 215.135 405.713C215.143 402.985 215.427 393.485 214.506 389.545C213.039 383.269 212.427 376.214 211.514 369.426C209.79 356.607 210.775 352.152 210.448 348.875C210.122 345.605 207.918 307.677 206.839 305.341C206.511 304.63 206.476 303.63 206.504 302.688C206.674 297.044 205.853 284.294 207.039 276.032C207.094 275.648 207.202 275.225 207.176 274.868C206.85 270.257 207.57 265.992 207.969 261.691C208.46 256.396 208.042 251.332 207.765 246.202C207.577 242.725 204.362 242.771 205.393 246.977C206.262 250.524 206.82 251.818 206.316 252.636C206.094 252.995 205.831 252.609 205.755 252.195C205.022 248.235 203.552 245.776 202.578 242.345C202.199 241.011 201.732 239.878 201.212 239.581C199.587 238.651 198.443 235.43 196.84 234.385C195.312 233.388 193.857 231.719 192.344 230.548C189.809 228.586 187.447 225.717 185.306 221.882C183.305 218.298 180.935 217.784 178.689 216.19C178.362 215.958 178.193 216.256 178.066 217.02C177.165 222.448 178.342 220.15 177.019 229.348C176.702 231.547 176.498 233.781 176.291 236.045C176.085 238.287 175.952 240.141 176.718 242.046C177.237 243.335 177.285 245.223 176.764 246.935C174.257 255.177 176.853 255.712 177.392 260.683C178.19 268.033 179.722 274.785 180.178 282.418C180.604 289.546 181.379 296.528 181.349 303.841C181.24 329.984 183.463 341.894 180.819 346.086C179.947 347.469 179.339 349.774 178.252 350.433C177.353 350.977 178.23 353.028 176.983 359.414C175.911 364.912 173.228 364.931 172.274 359.437C171.782 356.606 171.231 353.791 171.714 350.454C171.997 348.499 171.664 346.414 171.53 344.4C171.457 343.307 171.193 342.182 170.069 341.614C169.328 341.239 168.501 340.277 167.86 340.772C167.18 341.298 167.449 343.891 167.176 345.484C166.472 349.599 165.519 351.275 165.102 361.124C164.787 368.571 162.111 378.421 159.818 372.913C156.28 364.415 159.686 359.453 158.437 353.812C156.732 346.111 155.578 346.639 155.541 343.093C155.522 341.268 153.781 339.994 152.833 337.422C151.241 333.1 152.591 333.725 151.224 324.43C150.771 321.352 150.599 318.127 150.259 315.004C149.69 309.767 150.352 305.182 151.32 300.54C148.724 298.044 146.104 296.514 146.791 292.543C147.372 289.179 147.891 285.748 148.609 282.652C148.283 281.331 147.706 282.335 147.388 281.447C147.324 281.042 147.357 280.612 147.515 280.447C147.909 280.037 148.247 279.301 148.731 279.405C149.161 279.498 149.468 278.849 149.589 277.834C149.857 275.599 150.54 274.162 151.163 272.608C152.357 269.63 152.527 264.14 153.356 262.318C154.041 260.811 154.348 258.75 154.754 256.809C156.002 250.852 153.279 248.852 154.434 239.983C154.484 239.596 154.608 239.118 154.559 238.826C153.551 232.779 155.453 227.462 154.164 217.874C152.178 203.1 153.237 207.683 152.055 203.051C151.468 200.752 151.419 200.717 150.596 202.856C150.058 204.256 149.662 202.856 149.578 202.278C149.144 199.278 148.202 199.172 147.174 199.416C147.239 198.134 147.966 199.151 147.944 197.785C148.107 197.643 148.124 197.545 147.994 197.491C147.988 197.613 147.982 197.735 147.976 197.856ZM167.433 320.861C168.273 319.702 168.88 318.692 168.858 316.622C168.84 314.798 169.065 313.124 169.198 311.386C169.505 307.369 167.371 306.016 167.329 308.181C167.249 312.232 166.973 316.301 167.433 320.861ZM154.058 264.537C152.723 265.762 153.399 271.804 151.443 275.701C151.141 276.301 151.473 276.867 151.567 277.456C151.686 278.21 151.8 278.476 152.158 278.195C153.284 277.31 153.572 275.351 154.058 264.537ZM218.911 183.977C218.879 183.732 218.873 183.332 218.811 183.266C218.318 182.75 217.817 182.028 217.268 182.607C217.04 182.848 216.083 187.424 217.076 187.881C217.719 188.176 218.9 185.632 218.911 183.977ZM210.913 155.244C211.67 157.224 212.859 158.579 214.06 158.831C212.57 155.434 212.218 155.032 210.913 155.244ZM217.538 166.663C216.548 162.16 216.438 161.079 215.995 161.71C215.805 161.981 215.674 162.579 215.828 163.1C216.259 164.565 216.49 166.506 217.538 166.663ZM214.704 167.127C215.03 165.317 214.307 164.861 214.242 163.69C214.131 161.72 213.052 163.882 213.56 164.83C213.938 165.536 214.111 166.854 214.704 167.127ZM206.918 233.443C206.855 232.77 206.848 231.757 206.39 231.921C205.626 232.194 205.446 234.892 206.353 234.976C206.752 235.012 206.971 234.607 206.918 233.443ZM211.3 159.277C211.637 162.455 212.723 161.882 212.594 161.035C212.406 159.808 212.043 159.198 211.3 159.277ZM213.605 153.235C214.236 155.184 214.623 156.36 215.535 156.538C215.001 154.979 214.629 153.749 213.605 153.235ZM161.361 192.276C160.897 191.773 160.432 191.356 159.722 192.53C160.447 192.945 160.902 192.975 161.361 192.276ZM144.269 186.257C145.072 185.772 144.957 184.14 144.727 184.3C144.404 184.522 144.128 184.939 144.055 185.832C144.047 185.932 144.193 186.111 144.269 186.257ZM215.791 153.293C215.716 152.228 215.287 152.722 215.322 153.279C215.348 153.694 215.485 153.961 215.654 153.86C215.718 153.822 215.752 153.47 215.791 153.293ZM151.419 274.396C151.568 274.071 151.563 274.216 151.438 273.833C151.29 274.159 151.294 274.013 151.419 274.396Z" fill="black"/>
<path d="M90.0321 89.7643C90.5505 89.71 90.3446 87.0676 91.0059 87.8677C91.7091 88.7188 91.1316 90.2254 90.9859 91.0688C89.7784 98.053 91.1206 106.825 88.8592 114.043C88.5633 114.988 88.3241 116.138 88.1909 117.289C86.1688 134.748 81.0881 153.487 80.2695 154.726C77.7943 158.47 73.1313 167.351 65.3637 174.446C63.5259 176.125 62.211 179.23 60.9111 182.557C59.3924 186.445 57.4259 219.81 57.0846 225.145C56.3646 236.399 54.4547 239.577 55.3558 242.429C55.7146 243.565 56.0399 248.169 56.5692 249.033C57.7547 250.968 58.358 254.033 59.2014 256.629C60.1066 259.416 61.3016 261.442 62.4166 263.582C65.0672 268.67 71.2068 288.046 72.1881 290.686C74.3195 296.42 74.3537 300.462 74.8915 302.11C76.3674 306.635 74.7655 315.057 73.3348 319.505C72.6409 321.661 69.5405 333.91 68.3738 337.016C65.9948 343.348 67.1541 345.632 65.9019 350.028C64.3476 355.483 66.2777 363.148 68.0425 366.335C75.0813 379.045 70.2116 385.362 67.6535 384.436C65.5318 383.667 64.0046 380.42 62.3959 377.44C60.8778 374.628 62.1652 371.652 58.6333 370.157C56.2941 369.168 54.145 366.547 53.273 364.637C48.9091 355.075 57.5433 351.584 59.5107 336.632C60.3479 330.268 61.7196 320.152 63.5709 315.238C64.3747 313.104 64.495 311.749 63.7936 309.525C63.0235 307.082 62.2059 304.63 61.0554 303.136C57.347 298.32 56.3244 291.887 48.4164 286.795C44.6905 284.396 41.4111 287.289 38.3236 291.957C30.5234 303.751 30.6446 309.51 28.558 315.46C28.2489 316.342 27.6024 316.918 27.7864 318.672C27.8439 319.22 27.6828 319.672 27.4279 319.823C25.9868 320.673 26.647 324.329 26.499 325.099C25.3991 330.818 25.8274 337.537 24.5442 343.199C23.5387 347.636 24.5295 350.287 22.6323 359.689C21.9255 363.193 23.5503 363.657 22.4766 367.866C20.6736 374.932 22.4005 380.337 18.6528 383.91C14.6097 387.764 13.518 383.495 11.0119 388.31C7.4289 395.193 5.04109 395.052 1.2162 390.592C-2.43793 386.331 2.82137 376.89 8.06086 373.018C10.132 371.487 11.4052 366.142 12.4318 365.945C13.0722 365.823 13.4441 365.1 13.0449 363.186C12.773 361.881 12.6923 360.333 12.5177 358.899C11.4989 350.531 15.0767 354.325 14.5858 346.209C14.2995 341.476 15.1312 337.141 15.3259 332.586C15.6158 325.806 16.9698 319.684 17.3225 313.024C17.5867 308.035 18.8726 304.228 19.3151 299.549C21.389 292.559 22.2868 283.965 24.3235 276.89C25.0948 274.211 25.6705 271.069 26.1064 267.94C26.7661 263.203 28.7469 261.003 29.4747 245.543C29.5252 244.471 29.6684 243.671 30.0372 243.226C31.4676 241.501 31.033 239.088 31.2569 236.785C31.8083 231.113 31.1055 234.128 28.4262 228.851C27.3237 226.68 27.7985 224.158 28.8576 221.857C30.1252 219.103 30.5709 215.135 31.2476 211.565C31.7463 208.934 31.6102 205.867 31.3221 203.105C30.5726 195.919 32.1061 195.604 31.3814 177.336C31.1635 171.845 30.695 166.266 29.3498 161.301C28.0845 156.63 27.165 151.37 26.0176 146.461C25.4523 144.042 25.4151 140.735 25.2527 137.836C23.6472 109.16 20.6305 116.674 17.1213 88.3481C16.4662 83.0598 16.408 80.6877 14.8796 76.8791C12.0153 69.7418 12.7373 64.3438 12.1113 59.372C11.3853 53.6065 10.796 51.2488 11.7076 50.5168C12.7341 49.6928 12.1767 54.0054 13.1565 54.8089C13.2195 53.2336 13.3526 51.7835 13.0626 50.2509C12.8775 49.2727 12.5795 44.4959 13.7747 44.5287C14.7951 44.5569 13.4739 47.0349 15.2524 53.8647C15.2524 43.9601 15.0805 42.2225 15.8523 42.1604C16.3966 42.1167 16.5952 43.2275 16.5471 44.4328C16.4313 47.3376 16.9839 49.9581 17.0484 52.7962C17.5473 49.6699 16.7688 44.1725 17.8689 43.7629C19.2482 43.2493 18.8746 53.4181 18.8746 61.4507C19.4522 61.499 19.5666 60.7149 19.537 59.8619C19.5065 58.9875 19.9148 55.0806 20.6096 55.3578C20.9834 55.507 20.7849 56.464 20.8775 57.0206C22.3123 65.6398 18.4965 68.807 20.6107 77.0929C27.0202 102.213 27.3424 100.98 28.8157 111.172C30.2735 121.257 31.2721 119.56 32.6127 128.479C33.1216 131.864 34.3445 134.357 34.5616 138.155C34.6083 138.972 35.0038 139.212 35.3623 139.296C37.4632 139.785 39.4666 141.104 41.4423 144.348C40.5007 137.435 40.4267 130.925 40.5436 124.316C40.6198 120.011 41.8296 117.227 42.5106 113.74C43.0805 110.822 43.3793 116.414 44.3252 113.007C45.2126 109.81 46.6688 109.484 47.9884 108.54C51.5369 106.001 58.7882 121.434 57.0314 131.091C56.0883 136.274 57.1532 145.015 54.5132 150.802C53.732 152.515 53.231 154.882 52.3259 156.285C52.1738 156.52 52.1421 157.238 52.0122 157.974C54.0343 158.83 55.9185 155.709 57.2019 155.759C57.416 155.767 57.6881 155.771 57.8368 155.476C59.2112 152.744 60.9309 153.432 62.478 152.437C63.6342 151.693 64.6664 151.849 65.7815 153.075C67.2274 154.665 68.2178 152.044 74.2253 145.41C75.1281 144.413 75.8051 142.87 76.2584 140.842C79.1116 128.081 86.5734 110.996 85.1526 105.31C84.0887 101.052 84.4852 96.3218 84.4345 91.739C84.4294 91.2846 84.3964 90.3474 84.7014 90.5905C85.6626 91.3563 85.3386 89.5407 85.5054 88.4726C85.8226 86.4433 86.1231 84.4595 86.1096 82.2337C86.1017 80.9123 87.0231 79.9095 87.0439 82.2566C87.0548 83.4824 87.047 84.7089 87.047 86.1463C88.3509 84.1699 87.2199 80.1988 88.1484 79.9921C88.4769 79.919 88.6552 80.258 88.7072 81.0919C88.7305 81.4672 88.8209 82.1293 88.8832 82.1311C90.5488 82.1769 89.9343 85.2771 90.0288 87.3999C90.0652 88.2158 90.0597 89.0433 90.0733 89.8656C89.9891 89.9227 89.9048 89.9799 89.8205 90.0374C89.8568 90.1495 89.8929 90.2621 89.9292 90.3742C89.963 90.1717 89.9976 89.9682 90.0321 89.7643Z" fill="black"/>
<path d="M132.765 298.651C129.554 291.983 128.651 284.146 127.959 280.262C127.708 278.854 127.131 279.898 127.263 280.705C127.555 282.492 127.435 284.498 127.825 286.26C129.226 292.604 127.743 300.366 130.197 306.385C131.386 309.303 131.817 312.95 130.917 317.156C129.963 321.616 132.132 327.575 131.532 340.437C131.278 345.886 130.747 351.516 131.363 357.151C131.538 358.747 131.424 360.338 130.813 361.91C129.699 364.772 130.761 368.379 130.714 375.837C130.662 384.184 131.924 385.746 132.074 397.427C132.161 404.211 132.514 411.326 132.366 412.825C131.651 420.06 132.16 427.159 132.733 434.238C132.998 437.519 138.382 462.05 133.047 460.264C130.055 459.262 130.051 453.15 127.38 453.277C124.289 453.424 123.594 442.775 125.439 439.428C126.32 437.831 126.943 434.648 126.035 431.484C125.771 430.563 125.702 429.903 126.26 429.349C127.233 428.384 126.614 423.1 126.374 421.872C125.3 416.353 125.111 410.124 124.051 404.623C122.263 395.339 123.847 381.969 122.53 377.386C120.576 370.584 121.665 367.583 118.301 348.633C117.803 345.831 117.543 339.608 116.109 339.606C115.405 339.605 115.601 341.1 115.422 341.943C114.518 346.19 113.69 350.45 112.295 354.025C110.448 358.761 110.857 366.889 110.01 368.631C109.887 368.883 109.753 369.256 109.725 369.621C109.004 378.989 106.856 379.473 106.289 392.501C106.286 392.563 105.538 405.763 105.538 405.763C104.161 411.929 103.938 419.223 102.474 425.292C101.116 430.918 103.124 429.711 102.914 432.746C102.001 445.984 105.686 445.126 103.908 458.526C103.433 462.109 101.392 462.955 99.8681 463.001C98.6173 463.038 97.9711 460.238 97.5435 457.574C96.5811 451.579 97.4354 450.53 96.2022 440.147C96.0057 438.492 95.8887 436.809 96.0382 435.306C96.6046 429.615 96.463 423.712 96.9647 418.009C97.0917 416.565 97.0103 414.997 96.9952 413.487C96.9554 409.521 97.3003 405.682 97.5586 401.805C97.7234 399.33 97.5664 385.93 98.8956 379.863C99.8494 375.51 99.7938 367.226 99.4491 366.84C98.3874 365.65 98.8085 364.026 99.1711 362.354C99.393 361.331 99.3122 360.203 99.3119 359.116C99.3016 327.533 100.916 324.379 99.7262 318.783C99.6335 318.347 99.601 317.592 99.6904 317.191C100.662 312.834 100.303 307.361 101.597 303.251C101.841 302.478 102.055 300.919 101.905 300.235C101.278 297.372 101.958 294.966 102.186 292.416C102.68 286.885 101.53 287.879 102.005 282.761C103.456 267.151 102.018 257.578 102.926 249.205C103.059 247.969 102.793 246.83 102.656 245.648C100.53 227.213 98.1012 232.177 93.4056 216.408C90.8356 207.777 90.6058 203.701 92.8915 193.703C94.8308 185.22 107.035 157.34 108.781 154.054C110.563 150.699 113.351 152.723 114.705 156.818C113.591 157.495 112.888 154.793 111.902 156.367C113.163 158.074 114.951 158.037 115.113 162.77C114.662 163.438 114.271 162.925 113.842 162.639C112.682 161.865 109.946 162.569 110.289 165.064C110.368 165.633 110.637 165.774 110.846 165.601C112.408 164.311 114.033 165.766 115.673 164.476C118.231 162.464 122.425 174.336 123.283 178.174C124.509 183.664 123.15 185.225 123.673 189.118C124.033 191.798 123.314 195.505 122.294 196.958C121.286 198.395 120.428 205.677 121.835 205.217C123.317 204.732 124.807 207.432 125.474 206.342C125.708 205.959 126.052 205.852 126.26 206.277C127.896 209.627 128.993 205.882 131.208 212.63C134.3 222.052 133.207 223.973 135.792 235.5C137.181 241.689 138.099 248.35 138.932 255.055C139.655 260.871 137.92 266.439 138.458 268.663C139.036 271.053 138.112 273.133 138.312 275.407C138.33 275.609 138.243 276.02 138.165 276.1C136.8 277.5 136.977 280.969 136.568 283.606C135.618 289.724 134.637 285.755 134.34 290.355C134.149 293.321 133.561 295.943 132.765 298.651ZM108.174 209.36C112.52 207.021 111.059 205.341 111.3 200.547C111.36 199.344 111.27 197.721 110.522 196.891C107.719 193.787 109.658 188.449 109.147 184.952C108.5 180.523 109.307 177.118 110.314 173.786C110.64 172.707 110.862 171.443 111.315 170.595C111.701 169.875 111.496 168.377 110.824 168.929C109.679 169.869 109.278 171.828 107.447 171.843C104.61 171.867 101.146 191.265 99.6704 198.305C98.4011 204.362 100.562 202.355 105.428 207.403C106.357 208.367 107.547 206.795 108.174 209.36ZM132.177 254.185C131.55 250.748 130.618 248.139 129.578 245.122C129.026 252.204 129.794 254.801 132.177 254.185ZM128.572 243.219C128.022 243.165 127.995 245.021 128.57 244.948C129.202 244.867 129.093 243.27 128.572 243.219Z" fill="black"/>
<path d="M462.707 129.574C461.934 128.081 461.296 126.152 460.611 124.455C460.903 122.835 461.284 125.316 461.568 124.014C461.39 122.914 460.973 122.408 460.604 121.683C460.36 121.203 460.863 119.993 460.423 118.977C459.718 117.351 459.237 112.983 458.342 112.934C456.687 112.843 455.559 108.462 454.181 108.725C453.606 108.834 453.163 108.177 452.82 107.213C453.001 105.368 454.583 106.958 453.93 102.982C453.687 101.498 453.22 100.173 453.524 98.4005C454.01 98.2721 454.05 100.158 454.76 99.821C453.743 95.2879 454.008 91.0318 455.274 86.5633C455.465 89.1457 455.828 91.357 455.943 93.5126C456.422 102.548 460.135 102.689 464.508 116.084C464.836 117.088 465.447 117.114 465.634 118.785C465.79 120.176 466.578 120.517 467.041 121.417C471.756 130.596 469.786 132.358 472.589 134.85C472.339 132.725 471.275 132.58 471.111 130.207C473.608 132.373 472.877 135.499 474.499 131.49C473.017 125.932 470.816 122.544 468.918 113.241C468.032 108.903 466.878 105.213 464.871 103.841C464.74 103.751 464.575 103.785 464.554 103.179C465.101 102.686 465.592 104.442 466.249 103.231C467.195 101.49 469.979 117.921 474.795 128.361C473.702 117.162 473.598 117.685 473.868 116.182C474.158 114.565 473.23 113.548 472.938 112.122L472.892 112.228C473.542 110.691 473.257 109.938 472.598 105.543L472.547 105.645C473.128 105.574 473.12 106.982 473.385 107.707C473.782 108.793 474.081 110.124 474.702 110.761C473.915 107.475 473.03 104.329 472.602 100.62L472.557 100.725C473.927 100.008 474.205 106.445 475.964 108.334C475.018 103.901 473.748 100.728 472.725 97.1155C472.858 96.1116 473.405 96.2876 473.516 95.2615C472.712 90.7746 470.3 91.8904 471.262 88.9288C471.301 88.8099 471.057 88.0603 470.919 87.6596C470.547 86.5795 470.01 85.8356 470.256 83.9043C470.384 82.8966 469.52 83.3199 469.54 81.8327C469.881 81.1706 470.417 81.9615 470.816 81.2909C470.289 78.1004 469.907 76.9892 468.609 74.9793C468.861 73.9783 469.629 73.8181 469.319 71.3285C472.547 79.5621 470.546 76.0637 477.625 96.9109C482.763 112.043 484.197 117.726 488.532 121.977C491.499 124.886 494.079 127.028 495.675 138.262C495.884 139.732 496.391 141.21 496.31 142.65C495.933 149.319 497.055 155.747 496.148 161.842C498.893 164.208 498.595 161.331 502.211 157.934C505.407 154.932 506.641 150.289 508.09 147.03C510.785 140.969 510.177 139.557 514.631 123.343C515.772 119.188 518.552 105.915 519.069 103.089C519.358 101.507 520.216 99.1808 518.827 97.8086C518.654 97.6382 518.615 97.0065 518.758 96.8231C519.77 95.5278 519.208 94.5973 517.756 89.6543C517.048 87.2427 518.655 88.5672 518.247 86.6927C518.013 85.6211 517.723 84.6268 517.345 83.1879C519.246 83.6814 519.207 88.5489 520.445 90.6981C520.585 88.9355 520.672 87.2853 520.856 85.7054C521.044 84.0839 520.359 82.6218 520.787 80.8891C523.154 85.5679 520.315 100.388 524.354 97.3324C525.474 96.4844 526.074 95.6657 526.419 98.2548C526.516 98.9846 526.208 99.4425 525.953 99.591C522.588 101.548 520.813 107.384 520.078 115.258C519.25 124.123 517.363 134.653 515.468 145.876C515.129 147.883 514.67 149.652 513.993 151.162C513.327 152.648 507.046 169.806 504.245 174.83C503.214 176.679 502.848 179.568 502.817 183.003C502.705 195.191 504.695 197.96 503.998 203.643C503.725 205.871 503.764 208.18 503.449 210.399C503.036 213.319 502.8 216.424 503.364 219.535C503.483 220.192 503.469 221.609 503.307 221.872C502.463 223.235 502.766 225.245 502.75 227.029C502.698 232.884 501.882 232.362 502.077 237.379C502.427 246.376 500.967 256.67 502.295 258.964C502.687 259.64 502.897 260.78 502.942 261.732C503.189 267.009 504.625 271 505.304 275.812C506.123 281.621 507.165 287.232 508.029 293.006C508.599 296.82 509.607 299.58 510.973 301.566C513.538 305.297 516.47 314.139 514.745 319.964C513.223 325.1 512.14 319.566 511.993 323.961C511.817 329.227 508.85 333.005 506.761 330.723C505.918 329.802 505.061 328.962 504.143 328.457C501.469 326.987 501.582 319.794 498.283 311.389C496.585 307.064 496.738 299.782 494.372 299.946C492.428 300.081 492.311 292.637 491.379 292.806C490.704 292.929 490.456 294.425 490.351 295.986C490.324 296.38 490.176 296.765 490.19 297.128C490.364 301.517 489.501 305.493 489.414 309.86C489.343 313.462 488.567 316.999 488.051 320.516C486.769 329.247 485.429 333.296 481.999 331.473C478.017 329.356 475.964 320.255 471.027 293.253C469.183 283.171 467.498 277.607 464.291 278.865C458.755 281.037 456.347 280.528 454.826 281.993C454.804 280.004 455.24 278.873 455.646 278.025C457.894 273.325 459.266 268.064 462.299 264.438C464.118 262.264 465.709 259.211 467.427 256.665C468.331 255.327 468.185 256.033 469.029 257.755C470.775 261.316 470.191 263.631 473.399 275.139C473.762 276.443 474.267 277.216 474.944 276.986L474.898 276.861C475.022 279.837 474.823 278.835 477.616 285.693C477.808 286.165 477.993 286.738 478.298 286.731C478.562 286.725 478.86 286.979 479.06 286.299C479.238 285.698 479.259 284.985 479.142 284.355C477.633 276.259 479.271 266.296 479.228 265.355C478.938 259 480.89 253.474 480.28 249.659C480.158 248.893 480.074 247.763 480.787 247.609C481.119 247.538 480.615 245.975 480.888 244.744C481.202 243.332 481.257 241.651 481.741 240.17C482.872 236.706 481.123 234.692 482.289 231.425C484.006 226.618 481.602 223.298 481.923 218.846C482.206 214.916 481.836 210.9 482.231 207.004C482.432 205.018 481.933 203.318 481.85 201.44C481.794 200.168 481.371 200.121 479.274 200.301C478.881 200.334 478.462 201.642 478.104 200.259C476.772 195.114 478.527 194.791 477.992 191.581C477.505 188.663 475.558 190.749 475.269 184.956C475.171 182.983 475.202 180.499 474.739 179.236C474.218 177.818 473.187 178.87 472.379 178.887C468.574 178.966 469.143 183.906 467.948 180.807C467.497 179.636 467.437 179.778 466.637 181.264C466.201 180.844 466.406 179.644 466.221 178.897C465.851 177.403 465.643 175.622 464.68 176.19C464.172 176.49 463.663 173.857 464.635 173.939C465.324 173.996 465.534 171.696 466.348 171.989C466.73 172.126 466.794 169.563 466.303 169.171C465.022 168.145 465.252 165.854 465.281 163.534C465.961 163.381 467.157 167.276 467.643 164.012C467.893 162.336 468.701 161.651 469.015 159.626C467.383 158.216 465.479 156.739 463.785 154.644C461.52 151.844 462.748 158.696 460.64 155.592L460.69 155.694C461.796 151.507 463.5 152.754 465.555 149.475C464.672 148.769 463.789 148.063 462.901 147.354C463.266 145.652 463.97 146.108 464.526 145.652C463.64 143.179 462.286 143.576 460.961 141.892C462.669 140.907 463.882 144.552 465.37 143.122C464.653 140.384 463.147 140.167 462.355 137.188C464.279 137.343 466.596 144.398 468.375 143.256C468.384 143.627 468.371 144.012 468.408 144.365C468.432 144.601 468.577 144.516 468.561 144.24C468.523 143.594 465.136 134.264 462.707 129.574ZM475.916 115.44C475.891 114.985 475.925 115.108 475.797 114.993C475.997 115.416 475.906 115.177 476.26 116.247C476.302 116.691 476.394 116.991 476.597 116.974C476.666 117.423 476.769 117.766 476.988 117.735C476.905 118.856 476.587 120.055 477.265 121.209C477.384 119.795 477.34 118.744 476.944 117.844C476.868 117.419 476.765 117.077 476.554 117.078C476.581 116.435 476.492 116.128 476.218 116.354C476.242 115.793 476.137 115.498 475.916 115.44ZM464.937 153.068C466.567 154.273 468.197 155.478 469.828 156.683C468.45 153.247 466.869 151.597 464.937 153.068ZM473.236 164.935C471.867 164.082 471.504 164.443 470.687 167.587C471.58 165.897 472.412 165.562 473.236 164.935ZM468.161 169.962C468.691 171.435 468.69 169.299 468.472 169.24C468.285 169.189 468.21 169.569 468.161 169.962ZM473.372 170.528C473.23 170.816 472.717 171.652 473.09 171.933C473.34 172.121 473.474 171.708 473.53 171.183C473.546 171.032 473.441 170.801 473.372 170.528Z" fill="black"/>
<path d="M262.579 173.898C262.737 172.72 262.123 172.439 262.317 171.553C262.516 170.647 262.798 170.906 263.157 171.151C263.992 171.72 264.872 171.576 265.731 172.163C267.462 173.346 266.965 168.637 267.173 167.906C268.126 164.556 265.488 165.744 266.009 163.271C266.29 161.938 266.778 163.242 267.126 163.63C267.668 164.234 268.277 164.66 268.657 165.915C269.195 167.69 269.746 167.366 270.322 166.115C270.115 164.611 269.04 163.977 269.646 161.501C270.962 163.024 272.129 165.481 273.615 165.863C275.213 166.274 276.566 167.976 277.943 169.899C279.018 171.4 280.311 171.799 281.381 173.563C283.754 177.477 281.99 181.005 282.928 190.148C283.229 193.073 283.065 196.203 281.941 198.312C281.475 199.186 281.261 200.48 281.079 201.729C280.812 203.57 281.123 204.346 282.025 204.5C282.781 204.628 283.485 205.435 284.277 205.297C289.843 204.326 287.679 203.822 291.461 204.818C293.963 205.476 296.49 205.901 298.998 204.468C299.768 204.028 300.121 203.006 300.206 201.168C300.436 196.188 301.192 191.397 301.121 186.322C301.088 183.966 301.909 181.835 301.563 179.686C301.251 177.755 300.477 176.323 300.007 174.508C298.837 169.982 298.971 168.903 300.872 166.358C302.728 163.872 303.517 164.398 304.697 168.787C305.513 171.819 306.095 174.984 305.701 178.734C305.386 181.736 307.121 179.27 306.385 186.83C305.425 196.692 307.021 204.35 302.695 212.079C299.651 217.518 296.712 217.757 292.87 218.461C291.42 218.727 290.222 220.787 289.094 222.895C288.795 223.452 288.607 224.649 288.605 225.826C288.588 233.678 287.076 235.45 287.944 242.953C288.347 246.444 288.34 254.787 289.07 257.665C289.261 258.416 289.283 259.219 289.264 260.038C289.125 265.884 289.823 271.627 289.6 277.485C289.483 280.562 290.242 283.215 290.324 286.22C290.338 286.753 290.619 287.42 290.843 287.707C292.89 290.33 290.919 293.615 292.884 304.219C293.9 309.703 293.568 312.372 294.094 314.383C295.687 320.479 292.136 317.601 292.778 326.928C293.865 342.724 292.707 349.445 293.509 355.884C293.698 357.4 293.234 359.024 293.223 360.713C293.167 368.935 292.417 376.729 290.94 384.143C289.88 389.459 289.063 395.065 287.741 400.073C287.433 401.238 287.232 403.163 287.671 404.237C289.466 408.627 288.464 417.335 289.365 423.804C290.302 430.535 286.082 434.74 284.295 427.06C282.085 417.559 279.88 415.832 280.68 410.063C281.173 406.503 281.445 402.635 282.964 400.657C283.481 399.984 283.563 398.685 283.623 397.589C284.013 390.48 284.615 383.454 284.697 376.22C284.821 365.165 287.893 363.74 286.631 356.339C285.665 350.671 285.441 341.481 282.251 329.093C281.456 326.005 280.575 323.087 280.044 319.628C280.007 319.385 279.923 319.149 279.837 318.997C279.362 318.169 279.111 316.153 278.398 316.67C277.711 317.168 277.738 318.995 277.687 320.465C277.477 326.456 275.707 325.4 274.61 329.95C271.541 342.684 272.202 347.05 271.076 353.536C268.721 367.095 270.591 376.412 268.84 386.907C268.402 389.534 268.297 392.395 268.024 395.111C267.054 404.76 269.943 410.46 267.268 414.178C266.632 415.061 266.318 416.411 266.051 418.234C265.691 420.69 264.931 422.785 264.33 425.013C264.203 425.482 258.847 426.377 259.526 421.002C260.572 412.716 262.333 409.16 261.317 402.746C261.119 401.498 261.331 401.198 261.83 401.069C263.563 400.619 263.681 400.156 263.287 396.081C263.004 393.162 263.185 390.175 263.188 387.259C263.194 382.054 262.906 376.929 262.798 371.763C262.731 368.541 261.521 368.916 262.539 363.297C264.301 353.569 264.756 343.309 264.815 332.793C264.85 326.648 265.194 320.522 265.127 314.357C265.117 313.509 265.263 312.796 265.37 312.018C265.822 308.756 265.7 305.461 265.644 302.028C265.409 287.488 268.51 283.547 267.228 278.345C266.126 273.877 266.037 268.598 265.473 263.694C265.309 262.266 265.519 260.784 265.815 259.215C260.298 256.384 261 246.942 256.009 240.867C254.288 238.773 253.472 236.153 253.573 234.359C253.702 232.063 253.068 218.501 259.263 218.501C252.29 205.898 249.808 206.062 250.862 201.727C250.985 201.219 250.901 200.379 250.892 199.693C250.786 191.205 252.14 181.64 251.874 173.697C251.545 163.894 254.376 165.739 255.718 157.776C256.269 154.507 257.204 153.733 258.468 154.129C259.489 154.449 260.466 154.862 261.36 156.441C262.583 158.601 260.992 158.379 260.913 163.032C260.822 168.446 258.625 164.02 258.174 169.859C258.108 170.715 257.943 171.387 257.744 172.048C257.424 173.114 257.756 173.719 258.063 173.75C259.58 173.905 261.102 174.244 262.579 173.898ZM261.365 178.577C260.109 177.57 258.92 178.42 257.827 177.2C256.948 176.218 256.553 176.801 256.564 178.999C256.586 183.639 255.735 184.787 255.874 194.376C255.937 198.781 257.224 195.699 258.268 198.712C258.934 200.634 259.809 201.121 260.704 201.679C260.97 201.844 261.306 201.848 261.483 202.261C263.299 206.479 266.006 200.116 268.124 202.272C269.38 203.551 270.678 204.708 271.748 206.927C273.177 209.889 273.794 208.364 273.706 206.356C273.612 204.206 273.383 202.088 273.179 199.976C272.892 197.005 270.731 198.368 271.117 192.451C271.36 188.722 270.959 185.116 271.059 181.437C271.141 178.41 270.917 178.17 269.729 179.455C266.282 183.181 265.708 190.368 264.148 191.326C264.135 189.001 264.904 187.717 264.935 185.783C264.577 185.299 264.192 185.3 263.822 185.575C257.942 189.942 257.733 191.131 257.59 189.575C257.356 187.027 260.319 188.343 261.567 182.874C260.456 183.373 259.586 184.378 258.537 183.461C259.479 181.709 260.749 181.699 261.365 178.577Z" fill="black"/>
<path d="M328.532 335.235C327.657 338.518 326.469 344.166 324.071 345.621C322.56 346.537 321.138 345.175 320.377 341.793C319.106 336.151 318.25 330.353 318.364 323.605C318.495 315.839 318.41 308.074 319.331 300.527C319.495 299.184 319.471 297.798 319.092 296.616C317.862 292.779 321.633 283.577 320.146 269.854C319.907 267.651 320.781 265.957 319.699 263.412C320.012 268.431 318.877 271.897 318.671 276.029C318.522 279.006 314.294 286.747 313.785 279.821C313.656 278.069 314.092 277.817 314.642 277.641C314.954 277.541 315.247 277.057 315.6 276.694C315.485 275.096 315.32 273.642 315.881 271.998C319.721 260.721 316.13 252.835 318.106 247.316C318.587 245.974 318.395 244.174 318.407 242.552C318.436 238.755 318.495 238.565 319.915 238.227C321.032 237.96 321.12 237.944 321.036 235.175C320.923 231.423 321.326 227.825 321.405 224.135C321.522 218.615 321.089 213.193 321.055 207.709C321.026 203.009 314.089 171.961 314.008 171.595C313.635 169.9 313.046 168.406 313.365 166.048C313.47 165.271 313.109 164.058 312.924 163.088C311.55 155.886 309.959 148.943 308.875 141.395C308.565 139.237 307.996 137.318 307.583 135.243C307.159 133.113 304.487 132.082 305.28 126.681C305.497 125.203 305.35 124.244 305.122 123.335C304.765 121.912 304.856 120.746 305.431 120.472C307.55 119.463 305.318 111.972 307.659 110.76C307.98 110.594 307.696 108.524 308.294 108.225C308.623 108.976 308.29 111.648 308.858 110.926C309.824 109.696 309.837 111.671 309.713 112.818C309.518 114.617 309.582 116.225 309.772 117.926C309.829 118.436 309.861 119.123 309.77 119.551C308.668 124.736 312.102 133.665 315.618 151.66C316.88 158.122 318.416 164.315 320.557 169.953C322.026 160.26 319.449 165.849 319.099 161.262C320.781 159.837 322.749 159.451 323.674 154.566C322.354 152.765 319.334 152.681 318.83 152.135C318.699 151.994 318.344 151.295 318.607 150.954C319.623 149.639 319.154 148.135 318.695 146.725C319.33 145.128 319.852 146.355 320.396 146.623C320.702 146.774 321.177 146.718 320.964 145.457C320.619 143.406 320.834 143.875 321.562 143.869C324.382 143.846 326.806 147 329.366 149.126C334.061 153.025 336.483 164.175 336.483 164.529C336.516 177.382 337.35 174.13 335.137 186.658C334.911 187.939 334.691 189.287 335.265 190.319C335.835 191.343 336.539 193.055 337.175 191.812C338.838 188.562 340.055 191.403 343.437 184.578C345.838 179.732 347.492 173.227 349.591 167.738C352.654 159.728 354.366 146.221 358.021 138.256C359.549 134.926 357.208 130.729 358.691 127.055C358.801 128.89 358.822 130.67 359.532 132.145C359.82 130.27 360.072 128.624 360.321 127.003C361.141 127.449 360.39 129.475 361.109 130.162C361.815 130.837 362.327 132.55 362.347 134.314C362.355 134.988 362.208 135.971 362.426 136.252C363.765 137.98 362.69 140.331 362.715 142.374C362.719 142.733 362.628 143.19 362.522 143.453C359.997 149.725 347.895 192.607 346.615 196.98C344.262 205.025 343.207 203.988 342.229 216.56C342.166 217.362 342.233 218.267 342.112 218.992C341.247 224.179 341.129 229.831 340.488 235.111C339.839 240.463 341.125 251.617 341.694 256.333C342.276 261.162 341.375 263.457 342.529 272.869C343.116 277.664 343.571 282.669 342.975 287.75C342.771 289.486 343.018 291.298 342.743 293.034C342.618 293.821 342.811 294.811 343.167 294.991C344.539 295.685 345.122 298.372 345.611 301.096C347.607 312.22 349.419 313.696 349.184 322.579C349.053 327.512 347.587 329.285 346.309 325.504C345.991 324.564 345.571 323.817 345.297 322.813C344.946 321.527 344.657 320.271 343.902 320.594C343.425 320.798 343.267 319.764 343.031 319.027C342.607 317.697 342.239 318.354 342.018 319.445C341.294 323.024 341.8 325.826 339.798 331.934C338.732 335.186 337.627 338.436 336.256 340.952C334.866 343.505 331.577 344.079 330.212 339.274C329.8 337.823 329.353 336.437 328.532 335.235Z" fill="black"/>
<path d="M472.623 111.242C471.51 109.777 472.441 108.715 472.613 110.248C472.651 110.584 472.595 110.985 472.581 111.357L472.623 111.242Z" fill="black"/>
<path d="M474.944 276.986C474.994 276.379 475.103 276.909 474.898 276.861L474.944 276.986Z" fill="black"/>
<path d="M691.381 13.1839C691.499 12.8323 691.617 12.8368 691.735 13.1818L691.757 13.0749C691.624 13.0749 691.491 13.0749 691.358 13.0749L691.381 13.1839Z" fill="black"/>
<path d="M461.892 136.533L461.857 136.334L461.941 136.354L461.892 136.533Z" fill="black"/>
<path d="M460.639 155.592C460.739 155.843 460.704 156.323 460.644 156.27C460.312 155.974 460.627 155.876 460.689 155.694L460.639 155.592Z" fill="black"/>
<path d="M472.938 112.121C472.762 111.986 472.649 111.711 472.623 111.242L472.581 111.357C472.924 111.116 472.993 111.483 472.893 112.227L472.938 112.121Z" fill="black"/>
<path d="M472.598 105.543C472.537 105.375 472.475 105.207 472.413 105.038C472.442 104.983 472.48 104.864 472.497 104.881C472.684 105.058 472.614 105.355 472.547 105.645L472.598 105.543Z" fill="black"/>
<path d="M472.602 100.619C472.504 100.266 472.519 100.401 472.539 100.164C472.545 100.351 472.551 100.538 472.557 100.725L472.602 100.619Z" fill="black"/>
</g>
<defs>
<clipPath id="clip0_68_204">
<rect width="708" height="463" fill="white"/>
</clipPath>
</defs>
</svg>
