<svg width="50" height="50" viewBox="0 0 50 50" fill="none" xmlns="http://www.w3.org/2000/svg">
<g id="pie-chart  1" clip-path="url(#clip0_28_403)">
<g id="#ffc107ff">
<path id="Vector" d="M26.0312 0H26.3154C30.3496 0.0595703 34.3711 1.12988 37.8721 3.14258C40.9609 4.90137 43.6484 7.35938 45.6787 10.2773C48.457 14.2461 49.9834 19.0791 49.9639 23.9248C49.9609 24.3438 49.6963 24.752 49.2969 24.8926C48.9248 25.0137 48.5273 24.9648 48.1436 24.9727C40.8516 24.9727 33.5596 24.9717 26.2686 24.9736C25.9561 24.9736 25.6172 24.9336 25.376 24.7158C25.084 24.4814 24.9902 24.0938 24.999 23.7344C25 16.3779 25.001 9.02051 24.999 1.66309C25.0068 1.24609 24.9463 0.773438 25.2207 0.421875C25.4043 0.158203 25.7227 0.0371094 26.0312 0Z" fill="#FFC107"/>
</g>
<g id="#2196f3ff">
<path id="Vector_2" d="M18.9355 2.30175C19.9043 2.15625 20.8848 2.08593 21.8633 2.08886C22.2568 2.09179 22.6377 2.31738 22.8066 2.67675C22.9609 3.0332 22.9121 3.43164 22.9189 3.80957C22.9199 11.0937 22.917 18.3789 22.9199 25.6641C27.6455 31.7305 32.3613 37.8027 37.0869 43.8691C37.3398 44.1709 37.5615 44.5625 37.4473 44.9697C37.3516 45.4307 36.9209 45.6865 36.583 45.9629C33.4697 48.5459 29.4375 49.9785 25.3955 49.9853C23.9883 49.9316 22.5742 49.958 21.1738 49.7773C17.2393 49.3262 13.4287 47.8623 10.1973 45.5742C6.66406 43.0977 3.82715 39.6406 2.08203 35.6943C0.791014 32.7969 0.0927716 29.6367 0.0380841 26.4648C-0.0937518 20.332 2.02637 14.1328 6.08105 9.5039C9.35547 5.71191 13.9551 3.02246 18.9355 2.30175Z" fill="#2196F3"/>
</g>
<g id="#4caf50ff">
<path id="Vector_3" d="M28.04 27.0703C34.9033 27.0303 41.7695 27.0674 48.6338 27.0517C49.044 27.0322 49.5098 27.123 49.7578 27.4834C50.0479 27.8613 49.9561 28.3642 49.9541 28.8066C49.791 34.8818 47.1943 40.8476 42.8604 45.1074C42.5508 45.3994 42.2637 45.7861 41.8145 45.8525C41.4004 45.9433 40.9941 45.7012 40.7471 45.3808C36.5 40.123 32.2539 34.8652 28.0078 29.6074C27.7295 29.2344 27.3828 28.9053 27.1689 28.4883C26.8906 27.876 27.3691 27.1006 28.04 27.0703Z" fill="#4CAF50"/>
</g>
</g>
<defs>
<clipPath id="clip0_28_403">
<rect width="50" height="50" fill="white"/>
</clipPath>
</defs>
</svg>
